<svg width="130" height="54" viewBox="0 0 130 54" fill="none" xmlns="http://www.w3.org/2000/svg">
<path fill-rule="evenodd" clip-rule="evenodd" d="M28.038 9.15614C26.6886 10.769 24.5295 12.0411 22.3704 11.8594C22.1005 9.67862 23.1576 7.36155 24.3946 5.93041C25.744 4.27212 28.1055 3.09087 30.0172 3C30.2421 5.27164 29.3649 7.49785 28.038 9.15614ZM29.9945 12.291C28.0924 12.1804 26.3568 12.8688 24.9549 13.4248C24.0528 13.7826 23.2888 14.0856 22.7076 14.0856C22.0554 14.0856 21.2599 13.7664 20.3667 13.408C19.1964 12.9384 17.8584 12.4015 16.4553 12.4273C13.2391 12.4727 10.2479 14.3127 8.60612 17.2432C5.23256 23.104 7.72899 31.7816 10.9901 36.5521C12.5869 38.9146 14.4986 41.5042 17.0175 41.4134C18.1257 41.3711 18.9229 41.0295 19.7478 40.6759C20.6976 40.2688 21.6843 39.846 23.2249 39.846C24.7121 39.846 25.6556 40.2578 26.5613 40.6532C27.4225 41.0291 28.2495 41.3901 29.4772 41.3679C32.0861 41.3225 33.7279 39.0054 35.3247 36.6429C37.0479 34.1073 37.8052 31.6327 37.9201 31.2572C37.9267 31.2357 37.9312 31.2211 37.9336 31.2137C37.9309 31.2109 37.9096 31.2011 37.872 31.1837C37.2959 30.9174 32.893 28.8814 32.8508 23.422C32.8084 18.8396 36.3431 16.5179 36.8995 16.1524C36.9334 16.1302 36.9562 16.1152 36.9665 16.1073C34.7175 12.7453 31.209 12.3819 29.9945 12.291ZM48.0545 41.1181V5.70326H61.2114C68.0035 5.70326 72.749 10.4283 72.749 17.334C72.749 24.2398 67.9135 29.0103 61.0314 29.0103H53.4972V41.1181H48.0545ZM53.4967 10.3374H59.7715C64.4945 10.3374 67.1933 12.8816 67.1933 17.3567C67.1933 21.8319 64.4945 24.3988 59.749 24.3988H53.4967V10.3374ZM90.719 36.8701C89.2796 39.6415 86.1085 41.3907 82.6899 41.3907C77.6296 41.3907 74.0986 38.3467 74.0986 33.758C74.0986 29.2147 77.5171 26.6023 83.837 26.2161L90.6291 25.8072V23.8536C90.6291 20.9687 88.7624 19.4012 85.4338 19.4012C82.6899 19.4012 80.6883 20.8324 80.2835 23.0131H75.3806C75.538 18.4244 79.8112 15.0851 85.5912 15.0851C91.8211 15.0851 95.8693 18.379 95.8693 23.4902V41.1181H90.8315V36.8701H90.719ZM84.1514 37.1881C81.2502 37.1881 79.406 35.7797 79.406 33.6217C79.406 31.3955 81.1827 30.1006 84.5788 29.8962L90.6287 29.51V31.509C90.6287 34.8256 87.8399 37.1881 84.1514 37.1881ZM112.579 42.5038C110.398 48.7054 107.901 50.7498 102.594 50.7498C102.189 50.7498 100.839 50.7044 100.525 50.6135V46.3656C100.862 46.411 101.694 46.4565 102.121 46.4565C104.528 46.4565 105.877 45.4342 106.709 42.7764L107.204 41.209L97.9832 15.4259H103.673L110.083 36.3477H110.196L116.605 15.4259H122.138L112.579 42.5038Z" fill="#C1C4D6"/>
</svg>
