<svg width="130" height="48" viewBox="0 0 130 48" fill="none" xmlns="http://www.w3.org/2000/svg">
<path fill-rule="evenodd" clip-rule="evenodd" d="M61.1756 36.8515V23.401H68.0959C70.9317 23.401 73.3252 22.4478 75.2764 20.5679L75.7447 20.0913C79.3089 16.1992 79.0747 10.1359 75.2764 6.53494C73.3772 4.62857 70.7756 3.59596 68.0959 3.64891H56.9871V36.8515H61.1756ZM61.1761 19.3232V7.72616H68.2016C69.7108 7.72616 71.1419 8.30866 72.2087 9.36775C74.4725 11.5918 74.5245 15.2987 72.3388 17.6022C71.272 18.7407 69.7628 19.3762 68.2016 19.3232H61.1761Z" fill="#C1C4D6"/>
<path fill-rule="evenodd" clip-rule="evenodd" d="M95.2828 15.9078C93.4877 14.2397 91.0422 13.3925 87.9463 13.3925C83.9659 13.3925 80.974 14.8752 78.9968 17.8142L82.6911 20.1707C84.0439 18.1584 85.891 17.1522 88.2325 17.1522C89.7154 17.1522 91.1463 17.7083 92.265 18.7144C93.3577 19.6676 93.982 21.0444 93.982 22.5007V23.4803C92.369 22.5801 90.3398 22.1035 87.8423 22.1035C84.9285 22.1035 82.587 22.7919 80.8439 24.1952C79.1009 25.5985 78.2163 27.4519 78.2163 29.8084C78.1643 31.9531 79.0748 33.9918 80.6878 35.3686C82.3268 36.8514 84.4081 37.5927 86.8536 37.5927C89.7414 37.5927 92.0308 36.2953 93.7739 33.7006H93.956V36.8514H97.9625V22.8449C97.9625 19.9059 97.078 17.5759 95.2828 15.9078ZM83.9145 32.668C83.0559 32.0326 82.5354 31 82.5354 29.8879C82.5354 28.6435 83.1079 27.6109 84.2268 26.7901C85.3717 25.9693 86.8028 25.5456 88.4941 25.5456C90.8359 25.5192 92.6573 26.0487 93.9583 27.1078C93.9583 28.9083 93.2558 30.4704 91.8767 31.7943C90.6277 33.0652 88.9364 33.7801 87.167 33.7801C85.9961 33.8066 84.8512 33.4094 83.9145 32.668Z" fill="#C1C4D6"/>
<path d="M106.964 46.8333L120.961 14.1338H116.408L109.93 30.4438H109.852L103.218 14.1338H98.665L107.849 35.3951L102.645 46.8333H106.964Z" fill="#C1C4D6"/>
<path d="M46.7149 20.4882C46.7149 19.1909 46.6108 17.8935 46.4027 16.6226H28.7378V23.9568H38.8581C38.4418 26.3133 37.089 28.4314 35.1117 29.7553V34.5212H41.1475C44.6857 31.2116 46.7149 26.3133 46.7149 20.4882Z" fill="#C1C4D6"/>
<path d="M28.7388 39.1286C33.786 39.1286 38.0526 37.434 41.1485 34.5215L35.1128 29.7556C33.4217 30.9206 31.2624 31.5825 28.7388 31.5825C23.8478 31.5825 19.7113 28.2199 18.2283 23.7188H12.0105V28.6435C15.1845 35.0775 21.6625 39.1286 28.7388 39.1286Z" fill="#D8DAE5"/>
<path d="M18.2289 23.7187C17.4483 21.3623 17.4483 18.794 18.2289 16.411V11.5127H12.0101C9.32998 16.8876 9.32998 23.2421 12.0101 28.617L18.2289 23.7187Z" fill="#E6E8F0"/>
<path d="M28.7388 8.54719C31.4185 8.49424 33.9941 9.52685 35.9193 11.4067L41.2786 5.95241C37.8705 2.72218 33.3957 0.948198 28.7388 1.00115C21.6625 1.00115 15.1845 5.07866 12.0105 11.5127L18.2283 16.4374C19.7113 11.9098 23.8478 8.54719 28.7388 8.54719Z" fill="#D8DAE5"/>
</svg>
