<svg width="130" height="74" viewBox="0 0 130 74" fill="none" xmlns="http://www.w3.org/2000/svg">
<path fill-rule="evenodd" clip-rule="evenodd" d="M101.338 67.3459C101.338 68.9601 100.695 70.5083 99.5495 71.6498C98.4045 72.7912 96.8515 73.4325 95.2321 73.4325H34.1126C33.3102 73.4334 32.5155 73.2766 31.774 72.9712C31.0324 72.6657 30.3585 72.2175 29.7908 71.6522C29.2231 71.0869 28.7727 70.4156 28.4654 69.6767C28.1582 68.9378 28 68.1458 28 67.3459V6.42012C28 5.62024 28.1582 4.82819 28.4654 4.08928C28.7727 3.35036 29.2231 2.67907 29.7908 2.11378C30.3585 1.5485 31.0324 1.1003 31.774 0.79483C32.5155 0.489355 33.3102 0.332591 34.1126 0.3335H95.228C96.8473 0.3335 98.4003 0.974768 99.5454 2.11623C100.69 3.2577 101.334 4.80585 101.334 6.42012L101.338 67.3459Z" fill="#F4F6FA"/>
<path d="M68.9485 37.6721V24.5817L72.3774 23.7725V25.4864C72.3774 25.4864 73.2641 23.2302 75.3234 22.7059C75.9576 22.5468 76.2767 22.6423 76.2767 22.6423V25.9816C75.6597 25.99 75.05 26.1169 74.4811 26.3551C73.21 26.8545 72.5717 27.9473 72.5717 29.6073V36.8352L68.9485 37.6721ZM50.8798 41.9286C50.8798 41.9286 50.3247 41.0986 50.3247 38.1494V31.6325L48.5596 32.0475V29.3652L50.3261 28.9503V26.0231L53.9715 25.1655V28.0857L56.547 27.477V30.1607L53.9715 30.7707V37.4107C53.9715 40.4277 54.7749 41.0073 54.7749 41.0073L50.8798 41.9286ZM56.9272 34.1419C56.9272 31.8137 57.2602 30.1164 57.9735 28.8133C58.8214 27.2667 60.216 26.2597 62.2447 25.799C66.2426 24.893 67.6844 27.2529 67.6275 30.4152C67.6094 31.5454 67.6136 32.0973 67.6136 32.0973L60.5698 33.7476V33.8611C60.5698 36.0744 61.0361 37.1215 62.4404 36.8227C63.6532 36.5682 63.9904 35.8102 64.0861 34.875C64.1028 34.7215 64.1084 34.3383 64.1084 34.3383L67.4096 33.5498C67.4096 33.5498 67.4179 33.8196 67.4096 34.1197C67.3791 35.3772 67.0127 38.4952 62.4265 39.5742C58.0831 40.602 56.923 37.9571 56.923 34.1419H56.9272ZM62.3863 28.2365C61.2192 28.5007 60.6073 29.6419 60.5823 31.5329L64.1264 30.6919C64.1333 30.6061 64.1333 30.4152 64.1333 30.1219C64.1264 28.6957 63.6837 27.9432 62.3877 28.2365H62.3863ZM88.6075 26.4866C88.4687 22.4998 89.5067 19.3348 93.968 18.3249C96.8155 17.6803 97.8937 18.4162 98.4405 19.1287C98.9664 19.8092 99.169 20.7264 99.169 22.0115V22.2494L95.6749 23.0794V22.5939C95.6749 21.0722 95.2586 20.4912 94.1484 20.7679C92.8288 21.0985 92.2959 22.3463 92.2959 24.8307V25.9886C92.2959 28.5131 92.6428 29.6696 94.1623 29.3514C95.4834 29.0747 95.6638 27.9238 95.6887 26.9112C95.6887 26.7521 95.6984 26.2431 95.6984 26.2431L99.187 25.4242V25.965C99.1773 29.2739 97.4275 31.36 94.147 32.1208C89.633 33.1777 88.7477 30.5729 88.6089 26.4866H88.6075ZM76.539 32.0669C76.539 29.0346 78.3235 28.076 81.0059 26.9707C83.4163 25.9761 83.4676 25.4823 83.4787 24.6191C83.4912 23.8928 83.154 23.2689 81.9523 23.5747C80.8491 23.8513 80.5563 24.6509 80.498 25.2872C80.4777 25.5107 80.4703 25.7352 80.4758 25.9595L77.0941 26.7549C77.0713 26.083 77.1499 25.4115 77.3272 24.7629C77.8684 22.9494 79.4739 21.7293 82.2409 21.0916C85.8377 20.2616 87.0381 21.8386 87.0436 24.2871V30.0846C87.0436 32.8886 87.5654 33.298 87.5654 33.298L84.2447 34.0824C84.0611 33.6996 83.9116 33.3015 83.7979 32.8927C83.7979 32.8927 83.0721 34.7173 80.566 35.3066C77.9295 35.9236 76.5418 34.2996 76.5418 32.0683L76.539 32.0669ZM83.4593 27.928C82.8993 28.3192 82.308 28.6639 81.6914 28.9585C80.5813 29.4994 80.0831 30.1634 80.0831 31.1871C80.0831 32.0738 80.6382 32.6576 81.6373 32.4086C82.7127 32.1402 83.4593 31.1401 83.4593 29.7526V27.928ZM31.8244 51.1042C31.4455 51.1034 31.0737 51.0008 30.7484 50.8072C30.423 50.6135 30.156 50.336 29.9754 50.0039C29.7949 49.6717 29.7076 49.2972 29.7226 48.9197C29.7376 48.5422 29.8544 48.1758 30.0607 47.8589L30.0829 47.8299L30.1232 47.8202L35.0771 46.654V50.407L34.9994 50.425C33.8754 50.6947 32.5321 51.0004 32.2546 51.0571C32.1125 51.0889 31.9673 51.1047 31.8217 51.1042H31.8244ZM31.8244 55.9057C31.2677 55.9057 30.7337 55.6857 30.3393 55.2939C29.945 54.9021 29.7226 54.3705 29.7207 53.8155C29.7185 53.4104 29.8368 53.0137 30.0607 52.6756L30.0829 52.6383L30.1232 52.63L35.0771 51.4638V55.2168L34.9994 55.2376C33.8754 55.5059 32.5321 55.8172 32.2546 55.8711C32.112 55.899 31.967 55.9129 31.8217 55.9126L31.8244 55.9057ZM31.8244 60.7155C31.2664 60.7152 30.7313 60.4939 30.3368 60.1004C29.9423 59.7069 29.7207 59.1733 29.7207 58.617C29.7185 58.2119 29.8368 57.8152 30.0607 57.4772L30.0829 57.4384L35.0785 56.2654V60.0183L35.0008 60.0377C33.8143 60.3227 32.4947 60.6201 32.256 60.674C32.1133 60.7012 31.9683 60.7151 31.823 60.7155" fill="#C1C4D6"/>
<path d="M31.2416 46.5046L31.2402 25.5072L35.0798 24.6025V45.5986L31.2416 46.5046Z" fill="#C1C4D6"/>
<path d="M40.8067 44.7187C40.7918 44.1022 40.5356 43.5159 40.0928 43.0851C39.6501 42.6543 39.056 42.4132 38.4373 42.4132C37.8187 42.4132 37.2245 42.6543 36.7818 43.0851C36.3391 43.5159 36.0829 44.1022 36.0679 44.7187V64.3453C36.0708 66.0403 36.7475 67.665 37.9496 68.8636C39.1517 70.0623 40.7814 70.7371 42.4817 70.7404C44.2745 70.7404 49.1868 70.7321 49.1868 70.7321V53.4143C49.1877 52.9052 49.0624 52.4038 48.822 51.9547C48.5816 51.5056 48.2336 51.1226 47.8089 50.8399L41.8308 46.7923V55.9831C41.8344 56.0519 41.824 56.1208 41.8 56.1854C41.7761 56.25 41.7392 56.3091 41.6916 56.3591C41.6441 56.4091 41.5868 56.4489 41.5233 56.4761C41.4598 56.5033 41.3914 56.5173 41.3223 56.5173C41.2531 56.5173 41.1848 56.5033 41.1213 56.4761C41.0577 56.4489 41.0005 56.4091 40.9529 56.3591C40.9053 56.3091 40.8684 56.25 40.8445 56.1854C40.8206 56.1208 40.8101 56.0519 40.8137 55.9831C40.8137 55.8849 40.8012 45.9319 40.8012 44.7187H40.8067ZM44.0067 30.0762C43.2807 30.2435 42.5995 30.5649 42.0094 31.0185C41.4193 31.472 40.9343 32.0471 40.5875 32.7046V31.2341L37.1308 32.0502V41.4748C37.7371 41.2363 38.3977 41.1694 39.0398 41.2815C39.6818 41.3935 40.2803 41.6802 40.7693 42.1098V36.0231C40.7693 34.5665 41.4992 33.4017 42.5372 33.1735C43.3212 33.002 43.9734 33.2814 43.9734 34.6689V43.5484L47.6132 42.6963V33.3049C47.6132 31.0266 46.7362 29.4316 44.0053 30.0762H44.0067ZM96.9251 16.6372C96.4797 16.6375 96.0442 16.5061 95.6736 16.2596C95.3031 16.0132 95.0143 15.6627 94.8435 15.2526C94.6728 14.8424 94.6279 14.391 94.7146 13.9555C94.8012 13.5199 95.0155 13.1197 95.3302 12.8055C95.645 12.4914 96.0462 12.2773 96.483 12.1904C96.9198 12.1035 97.3727 12.1477 97.7843 12.3173C98.196 12.487 98.5479 12.7746 98.7956 13.1436C99.0433 13.5127 99.1756 13.9467 99.1759 14.3907C99.1748 14.9853 98.9373 15.5553 98.5154 15.9756C98.0935 16.3959 97.5216 16.6324 96.9251 16.6331V16.6372ZM96.9251 12.4264C96.5357 12.4264 96.1551 12.5415 95.8313 12.7571C95.5075 12.9728 95.2551 13.2792 95.1061 13.6378C94.957 13.9964 94.9179 14.391 94.9938 14.7718C95.0696 15.1525 95.257 15.5023 95.5323 15.7769C95.8075 16.0514 96.1582 16.2385 96.5401 16.3144C96.922 16.3903 97.3179 16.3516 97.6777 16.2033C98.0375 16.0549 98.3452 15.8035 98.5617 15.4809C98.7782 15.1583 98.8939 14.7789 98.8942 14.3907C98.8935 13.8702 98.6858 13.3712 98.3168 13.003C97.9477 12.6349 97.4473 12.4275 96.9251 12.4264Z" fill="#C1C4D6"/>
<path d="M96.1051 13.0558H97.0764C97.4636 13.0558 97.7703 13.2481 97.7703 13.7586C97.7703 14.1141 97.6121 14.388 97.3123 14.435C97.5899 14.4627 97.7286 14.6121 97.7411 14.998C97.7411 15.1709 97.7494 15.3867 97.7578 15.5514C97.7577 15.5984 97.7696 15.6446 97.7924 15.6858C97.8153 15.7269 97.8482 15.7616 97.8882 15.7865H97.3942C97.3445 15.7156 97.3183 15.631 97.3193 15.5444C97.3026 15.3798 97.3054 15.2263 97.2999 15.0271C97.2999 14.7283 97.2013 14.5969 96.8988 14.5969H96.5505V15.7865H96.1106L96.1051 13.0558ZM96.8946 14.2759C96.9543 14.2814 97.0145 14.2736 97.0708 14.2531C97.1271 14.2325 97.178 14.1997 97.22 14.1571C97.262 14.1144 97.294 14.063 97.3135 14.0065C97.3331 13.95 97.3398 13.8899 97.3332 13.8305C97.3332 13.5386 97.2083 13.3865 96.9169 13.3865H96.5505V14.2759H96.8946Z" fill="#C1C4D6"/>
</svg>
