<svg width="192" height="46" viewBox="0 0 192 46" fill="none" xmlns="http://www.w3.org/2000/svg">
<path d="M14.9746 0.159397L17.0323 3.76361C17.452 4.50524 17.452 5.42016 17.0323 6.16179L4.86538 27.5306L10.6116 37.6155C11.9811 40.0483 15.0434 40.9078 17.4589 39.5285C18.2572 39.0779 18.911 38.4125 19.3583 37.6155L25.1045 27.5306L23.5492 24.8067L17.0391 36.25C16.3854 37.3937 14.9333 37.7887 13.791 37.1303C13.4262 36.9223 13.1234 36.6174 12.917 36.25L7.96904 27.5375L19.2757 7.69358L21.3333 11.2909C21.7531 12.0325 21.7531 12.9474 21.3333 13.696L13.44 27.5167L14.9953 30.2407L23.563 15.1931L29.1578 25.0631C30.0181 26.588 30.0181 28.4525 29.1578 29.9704L23.446 39.9998C22.5652 41.5385 19.8675 44.9833 14.9609 44.9833C10.0542 44.9833 7.37032 41.5524 6.49635 39.9998L0.791401 29.9704C-0.0688135 28.4455 -0.0688135 26.581 0.791401 25.0562L14.9677 0.152466" fill="#C1C4D6"/>
<path d="M60.4146 17.4111C55.8383 17.4111 52.1359 20.6618 52.1359 25.8463C52.1359 31.0309 55.3152 34.1984 60.4352 34.1984C62.4654 34.1984 64.5987 35.245 64.5987 37.5392C64.5987 39.8335 62.7681 41.1157 60.4352 41.1157C58.1023 41.1157 56.1479 39.6948 56.1479 37.5392H52.1221C52.1221 42.0237 55.68 44.9625 60.4352 44.9625C65.1905 44.9625 68.6589 42.1415 68.6589 37.56C68.6589 35.4322 67.9914 33.4429 65.2662 32.0636C67.9638 30.816 68.7277 27.9118 68.7277 25.8394C68.7277 20.6549 64.9978 17.4111 60.4077 17.4111H60.4146ZM60.449 30.8021C58.0886 30.8021 56.1617 28.7297 56.1617 25.8186C56.1617 22.9075 58.0886 20.7935 60.449 20.7935C62.8094 20.7935 64.7088 22.9491 64.7088 25.8186C64.7088 28.6881 62.7819 30.7744 60.449 30.7744V30.8021ZM159.243 27.6069C159.697 29.5753 161.48 31.3012 164.342 31.3012C165.836 31.3012 167.804 30.5595 168.733 29.5892L171.327 32.1676C169.6 33.9835 166.772 34.8569 164.273 34.8569C159.154 34.8569 155.444 31.4121 155.444 26.1167C155.334 21.4104 159.037 17.5081 163.709 17.4042C163.806 17.4042 163.895 17.4042 163.991 17.4042C168.939 17.4042 173.055 20.842 172.642 27.5999H159.229L159.243 27.6069ZM168.781 24.474C168.196 22.3184 166.262 20.8212 164.04 20.8074C161.81 20.8282 159.862 22.3184 159.25 24.474H168.781ZM140.538 27.6069C140.993 29.5753 142.775 31.3012 145.638 31.3012C147.131 31.3012 149.099 30.5595 150.028 29.5892L152.623 32.1676C150.895 33.9835 148.067 34.8569 145.569 34.8569C140.449 34.8569 136.74 31.4121 136.74 26.1167C136.63 21.4104 140.332 17.5081 145.005 17.4042C145.094 17.4042 145.19 17.4042 145.287 17.4042C150.235 17.4042 154.35 20.842 153.937 27.5999H140.518L140.538 27.6069ZM150.07 24.474C149.485 22.3184 147.551 20.8212 145.328 20.8074C143.098 20.8282 141.151 22.3184 140.538 24.474H150.07ZM80.4473 17.3972C78.4447 17.321 76.5316 18.2498 75.3479 19.8855V10.4869H71.3084V34.4271H75.3479V25.9711C75.3479 23.4828 76.9995 21.4381 79.3875 21.4381C81.5415 21.4381 83.0967 22.7135 83.0967 25.7354V34.4202H87.1294V25.4443C87.1363 20.5786 85.0787 17.3903 80.4473 17.3972ZM126.851 17.3972C125 17.3972 122.811 18.2013 121.559 20.0449L121.428 17.7715H117.526V41.7326L121.566 41.2959V32.4795C122.722 34.2885 125.234 34.8638 126.954 34.8638C132.184 34.8638 135.226 30.9061 135.226 26.0751C135.226 21.244 131.888 17.418 126.851 17.418V17.3972ZM126.555 31.2942C123.809 31.2942 121.923 28.7297 121.923 26.1513C121.923 23.5729 123.644 20.7866 126.555 20.7866C129.466 20.7866 131.193 23.566 131.193 26.1513C131.193 28.7297 129.307 31.315 126.555 31.315V31.2942ZM182.407 34.8361C184.258 34.8361 186.446 34.0321 187.699 32.1884L187.837 34.3994H191.745V10.5354H187.706V19.8093C186.55 18.0003 183.997 17.4596 182.276 17.4596C177.046 17.4596 174.032 21.3827 174.032 26.2206C174.032 31.0586 177.376 34.8707 182.407 34.8707V34.8361ZM182.703 20.9391C185.449 20.9391 187.341 23.4967 187.341 26.082C187.341 28.6673 185.621 31.4398 182.703 31.4398C179.785 31.4398 178.071 28.6604 178.071 26.082C178.071 23.5036 179.957 20.9599 182.703 20.9599V20.9391ZM96.9634 31.6131C96.5299 31.6477 96.1032 31.4606 95.8279 31.121C95.5389 30.6496 95.415 30.0952 95.4563 29.5407V21.3619H98.7114L99.083 17.7992H95.4907V13.2385L91.4099 13.6752V17.7992H88.3337V21.3549H91.4099V29.6169C91.4099 31.3289 91.809 32.6181 92.6004 33.4984C93.3918 34.3786 94.5686 34.8291 96.117 34.8499C96.812 34.8499 97.5071 34.746 98.1746 34.545C98.8352 34.3578 99.4615 34.0598 100.026 33.6716L98.6357 31.0586C98.1264 31.3913 97.5415 31.5784 96.9359 31.5992L96.9634 31.6131ZM113.569 25.5136C111.917 24.4878 109.984 24.3492 108.105 24.2244C107.004 24.1551 105.283 23.8918 105.283 22.4431C105.283 21.3965 106.357 20.7797 108.291 20.7797C109.867 20.7797 111.202 21.147 112.372 22.256L114.649 19.5667C112.743 17.9032 110.803 17.3903 108.222 17.3903C105.215 17.3903 101.264 18.735 101.264 22.554C101.271 24.1413 102.09 25.6176 103.439 26.4494C104.974 27.4197 106.928 27.5514 108.649 27.7316C109.805 27.8494 111.69 28.1475 111.387 29.7625C111.167 30.9061 109.839 31.2249 108.862 31.2665C107.823 31.3289 106.791 31.2319 105.779 30.9823C104.747 30.6774 103.769 30.1922 102.895 29.5545L100.838 32.2092L101.086 32.4171C103.804 34.5796 107.355 35.3698 110.727 34.5727C113.225 34.0043 115.386 32.1537 115.386 29.3951C115.386 27.8425 114.863 26.3246 113.535 25.4929L113.569 25.5136ZM45.7772 34.4202H49.8168V17.82H45.7772V34.4202ZM45.4331 12.5038C45.4331 11.1869 46.4929 10.1195 47.8004 10.1195C49.1148 10.1195 50.1815 11.1938 50.1815 12.5177C50.1815 13.8415 49.1148 14.9159 47.8004 14.9159C47.1742 14.9159 46.5686 14.6664 46.135 14.2158C45.6877 13.7653 45.44 13.1484 45.44 12.5177L45.4331 12.5038ZM42.4602 34.4479V10.5007H38.4619V34.4479H42.4602Z" fill="#C1C4D6"/>
</svg>
