<svg width="192" height="54" viewBox="0 0 192 54" fill="none" xmlns="http://www.w3.org/2000/svg">
<g clip-path="url(#clip0_742_4168)">
<path d="M25.8559 22.4683L37.3784 17.4649V37.7646L25.8559 42.768L14.4051 37.7646V17.4649L25.8559 22.4683ZM19.0116 9.44328V15.4841L25.8559 12.4615L19.0116 9.44328ZM32.7677 9.44328L25.8559 12.4615L32.7677 15.4841V9.44328ZM25.8559 14.5406C25.5973 14.556 25.3548 14.6731 25.1801 14.8668C25.0054 15.0606 24.9122 15.3157 24.9203 15.578C24.9144 15.7048 24.9345 15.8315 24.9792 15.9501C25.024 16.0687 25.0924 16.1767 25.1802 16.2673C25.268 16.3578 25.3734 16.4291 25.4897 16.4765C25.6059 16.5239 25.7306 16.5465 25.8559 16.5428C25.9845 16.5535 26.1138 16.5369 26.2357 16.4943C26.3576 16.4517 26.4694 16.3839 26.5641 16.2952C26.6588 16.2065 26.7343 16.0988 26.7858 15.9791C26.8372 15.8593 26.8636 15.73 26.8632 15.5993C26.8683 15.4621 26.846 15.3253 26.7977 15.1971C26.7493 15.0688 26.676 14.9517 26.5819 14.8529C26.4879 14.754 26.3751 14.6754 26.2503 14.6218C26.1256 14.5681 25.9914 14.5405 25.8559 14.5406V14.5406ZM25.8559 18.0327C25.6034 18.0612 25.37 18.1829 25.2006 18.3747C25.0311 18.5665 24.9374 18.8149 24.9374 19.0723C24.9374 19.3296 25.0311 19.578 25.2006 19.7698C25.37 19.9616 25.6034 20.0834 25.8559 20.1118C26.1167 20.0948 26.3614 19.978 26.5402 19.7849C26.7189 19.5918 26.8185 19.337 26.8185 19.0723C26.8185 18.8075 26.7189 18.5527 26.5402 18.3596C26.3614 18.1666 26.1167 18.0497 25.8559 18.0327V18.0327ZM51.7119 26.2465C51.701 31.4242 50.1754 36.4825 47.3277 40.7823C44.4801 45.0821 40.4382 48.4304 35.7127 50.4042C30.9872 52.3781 25.7901 52.8888 20.7782 51.872C15.7662 50.8551 11.1642 48.3563 7.55371 44.6912C3.94316 41.0262 1.48606 36.3593 0.492834 31.2802C-0.500392 26.2012 0.0148317 20.9379 1.97341 16.1554C3.93198 11.3728 7.24603 7.28561 11.4968 4.41016C15.7476 1.5347 20.7444 1.30423e-05 25.8559 1.41796e-06C29.2563 -0.00113213 32.6235 0.677385 35.7645 1.99668C38.9056 3.31597 41.7588 5.25011 44.1607 7.68827C46.5626 10.1264 48.4659 13.0207 49.7617 16.2053C51.0575 19.3898 51.7202 22.8021 51.7119 26.2465ZM48.4709 26.2465C48.4759 21.7228 47.1566 17.2992 44.6799 13.535C42.2032 9.77081 38.6802 6.83501 34.5564 5.09881C30.4326 3.36261 25.8932 2.90399 21.5121 3.78092C17.1311 4.65786 13.105 6.83097 9.94313 10.0255C6.78121 13.22 4.62538 17.2925 3.74822 21.7281C2.87107 26.1636 3.31196 30.763 5.01517 34.9448C6.71838 39.1265 9.60742 42.7028 13.317 45.2215C17.0266 47.7401 21.3901 49.088 25.8559 49.0948C28.8219 49.0987 31.7596 48.5108 34.5013 47.3647C37.2429 46.2186 39.7349 44.5367 41.8349 42.4151C43.9349 40.2934 45.6018 37.7735 46.7404 34.9993C47.879 32.2251 48.467 29.2509 48.4709 26.2465ZM81.3819 36.5351H84.5513V14.8352H81.0954L76.4046 26.4343C75.8272 27.6638 75.2541 29.269 74.9633 30.1186C74.6767 29.2648 73.956 27.6638 73.4503 26.4343L68.6331 14.8352H65.3205V36.5479H68.3465V25.0213C68.3465 23.7918 68.3465 21.8109 68.2749 21.2431C68.5614 21.8109 69.1178 23.4161 69.7162 24.6584L74.8284 36.9321L80.0839 24.6541C80.5896 23.4289 81.2387 21.8237 81.4536 21.2388C81.4536 21.8066 81.3819 23.8003 81.3819 25.017V36.5351ZM102.033 25.3969V36.5351H98.9396V34.9341C98.3627 35.549 97.6703 36.041 96.9032 36.3811C96.136 36.7213 95.3095 36.9028 94.4722 36.915C91.8803 36.915 88.9259 35.4037 88.9259 31.4377C88.9259 27.7578 91.6653 26.1526 95.3362 26.1526C96.562 26.1081 97.785 26.3008 98.9396 26.7204V25.5079C98.9396 23.8003 97.8564 22.7714 95.9135 22.7714C94.4364 22.7122 92.9718 23.0683 91.6822 23.8003L90.4558 21.3456C91.9688 20.4021 93.6967 19.9282 96.0021 19.9282C99.5844 19.9197 102.05 21.6231 102.05 25.3969H102.033ZM98.9396 29.6661C98.0967 29.1965 96.9925 28.9104 95.2645 28.9104C93.1573 28.9104 91.9519 29.8539 91.9519 31.3652C91.9519 32.9704 92.9592 34.012 95.0496 34.012C95.8153 33.9846 96.5649 33.7812 97.2417 33.4174C97.9185 33.0535 98.5048 32.5386 98.9564 31.9116L98.9396 29.6661ZM109.897 20.2271H106.749V36.5564H109.918L109.897 20.2271ZM108.384 18.148C108.789 18.1413 109.182 18.0135 109.516 17.7808C109.849 17.5481 110.107 17.2209 110.257 16.8402C110.407 16.4595 110.442 16.0424 110.359 15.6412C110.276 15.2401 110.077 14.8729 109.788 14.5857C109.5 14.2985 109.134 14.1042 108.736 14.0272C108.339 13.9502 107.928 13.9939 107.555 14.1529C107.182 14.3118 106.863 14.5789 106.64 14.9206C106.416 15.2623 106.297 15.6633 106.298 16.0732C106.308 16.6258 106.534 17.1519 106.925 17.5367C107.317 17.9214 107.843 18.1335 108.388 18.1267L108.384 18.148ZM122.861 33.3503C122.14 33.7793 121.32 34.0076 120.484 34.012C119.334 34.012 118.828 33.5381 118.828 32.0269V23.1301H122.861V20.2057H118.828V13.8789L115.73 15.5865V20.2057H113.425V23.1301H115.73V32.5733C115.73 35.4977 117.1 36.915 119.334 36.915C120.436 36.9508 121.528 36.6901 122.499 36.1594L122.861 33.3503ZM135.897 23.6253L136.76 20.6027C136.111 20.1331 135.319 19.941 134.021 19.941C133.293 19.9303 132.574 20.0964 131.923 20.4254C131.272 20.7545 130.708 21.2369 130.279 21.8322V20.2057H127.109V36.5351H130.279V27.2839C130.279 24.4535 131.501 23.0148 133.448 23.0148C134.304 22.9759 135.153 23.1799 135.901 23.6039L135.897 23.6253ZM138.488 28.4408C138.488 22.891 141.367 19.941 145.548 19.941C150.083 19.941 152.316 23.7192 152.316 28.0523C152.316 28.714 152.245 29.1879 152.245 29.5636H141.59C141.877 32.6801 143.676 34.0035 145.624 34.0035C146.9 33.9851 148.137 33.551 149.151 32.7654L151.022 34.7463C149.585 36.1636 147.929 36.9193 145.48 36.9193C141.662 36.915 138.493 33.7986 138.493 28.4195L138.488 28.4408ZM141.658 26.9296H149.147C149.004 24.6627 147.925 22.7757 145.329 22.7757C143.175 22.7544 141.877 24.2656 141.662 26.9082L141.658 26.9296ZM155.271 22.5879H157.357L159.738 14.8352H155.705L155.271 22.5879ZM180.558 25.7001C180.558 33.4442 175.732 36.5564 170.114 36.5564H164.214V14.8352H170.114C175.867 14.8352 180.553 18.0327 180.553 25.6787L180.558 25.7001ZM177.245 25.7001C177.245 21.0766 175.138 17.9602 170.114 17.9602H167.438V33.4229H170.101C175.15 33.4229 177.241 30.3064 177.241 25.6787L177.245 25.7001ZM67.4151 48.7533C66.1887 48.2837 65.9021 47.9976 65.9021 47.528C65.9021 46.9602 66.2603 46.5846 67.1285 46.5846C67.6852 46.563 68.2277 46.7656 68.6373 47.1481L69.143 46.5846C68.6057 46.1152 67.9083 45.8777 67.2002 45.9228C66.0454 45.9228 65.2531 46.4906 65.2531 47.528C65.2531 48.4715 65.6745 48.9454 67.0526 49.415C68.2074 49.7949 68.5657 50.1706 68.5657 50.7384C68.5657 51.3958 68.0641 51.8697 67.2002 51.8697C66.8866 51.8684 66.5768 51.8004 66.2908 51.6703C66.0048 51.5401 65.7489 51.3506 65.5396 51.1141L65.0255 51.5495C65.3026 51.8487 65.6376 52.0869 66.0096 52.2492C66.3815 52.4115 66.7825 52.4945 67.1875 52.493C68.4814 52.493 69.2737 51.6392 69.2737 50.7C69.2737 49.7608 68.8522 49.2826 67.4109 48.7148L67.4151 48.7533ZM74.4027 49.9828C74.4027 51.588 73.5346 52.5442 72.384 52.5442C71.1576 52.5442 70.2767 51.6008 70.2767 49.9828C70.2767 48.3648 71.2124 47.528 72.384 47.528C73.5556 47.528 74.3985 48.3392 74.3985 49.9443L74.4027 49.9828ZM73.7495 49.9828C73.7495 48.7533 73.1763 48.0958 72.384 48.0958C71.5411 48.0958 71.0143 48.7533 71.0143 49.9828C71.0143 51.2123 71.52 51.8697 72.384 51.8697C73.1721 51.8313 73.7453 51.1696 73.7453 49.9443L73.7495 49.9828ZM75.8567 46.9602V47.6219H75.2077V48.1342H75.8567V52.2924H76.5774V48.1342H77.4203V47.5707H76.5774V46.8151C76.5774 46.4394 76.7207 46.3412 76.9989 46.3412C77.1952 46.3193 77.3937 46.3533 77.572 46.4394V45.7777C77.4288 45.7777 77.2138 45.6838 76.9989 45.6838C76.8376 45.6702 76.6753 45.6935 76.524 45.7518C76.3728 45.8101 76.2363 45.902 76.1248 46.0208C76.0132 46.1395 75.9293 46.2821 75.8793 46.4381C75.8292 46.594 75.8143 46.7593 75.8357 46.9218L75.8567 46.9602ZM79.6034 45.735L78.9544 46.1107V47.6219H78.377V48.1342H78.9333V51.3446C78.9333 52.1002 79.2199 52.4802 79.7973 52.4802C80.1173 52.4702 80.4334 52.4067 80.7329 52.2924V51.6306C80.535 51.746 80.3121 51.8105 80.0839 51.8185C79.7257 51.8185 79.5824 51.6306 79.5824 51.2507V48.1342H80.7329V47.5707H79.5824L79.6034 45.735ZM85.9252 50.7384C85.9209 50.9655 85.8707 51.1892 85.7777 51.3958C85.7548 51.1719 85.7068 50.9513 85.6344 50.7384L84.7915 47.6219H84.2183L83.3501 50.7384C83.2777 50.9513 83.2297 51.1719 83.2068 51.3958C83.1352 51.3019 83.1352 50.9262 83.0635 50.7384L82.3429 47.6219H81.6222L82.9202 52.3436H83.4976L84.3405 49.1332C84.3634 48.9078 84.4115 48.6859 84.4838 48.4715C84.4875 48.6995 84.5362 48.9245 84.6271 49.1332L85.4911 52.3436H86.0685L87.3623 47.5835H86.6416L85.9252 50.7384ZM91.6105 49.0308V52.335H90.8941V51.7673C90.7257 51.9952 90.5085 52.1816 90.2589 52.3124C90.0093 52.4433 89.7337 52.5152 89.4527 52.5229C88.6604 52.5229 87.9397 52.1429 87.9397 50.9177C87.9397 49.8803 88.7826 49.4064 89.7393 49.4064C90.1432 49.3835 90.5448 49.4815 90.8941 49.6882V49.1247C90.8941 48.369 90.6033 48.0873 89.8826 48.0873C89.4225 48.0674 88.9686 48.1993 88.5887 48.463L88.3696 47.8994C88.8465 47.6064 89.4025 47.4734 89.9585 47.5195C90.9615 47.4896 91.6063 47.8696 91.6063 48.9881L91.6105 49.0308ZM90.8941 50.256C90.5219 50.041 90.095 49.943 89.6677 49.9742C89.0186 49.9742 88.5887 50.256 88.5887 50.9177C88.5707 51.0506 88.5817 51.1858 88.621 51.3139C88.6603 51.442 88.727 51.5597 88.8163 51.6587C88.9056 51.7577 89.0154 51.8356 89.1377 51.8868C89.2601 51.9381 89.3921 51.9614 89.5244 51.9551C89.7955 51.9484 90.0612 51.8764 90.2994 51.745C90.5376 51.6136 90.7415 51.4266 90.8941 51.1995V50.256ZM93.6841 48.1342V47.5707H93.035V52.2924H93.6841V49.5516C93.6841 48.6081 94.1055 48.0446 94.763 48.0446C95.0142 48.0509 95.2607 48.1151 95.4837 48.2324L95.627 47.5707C95.4002 47.4772 95.1533 47.4448 94.9105 47.4768C94.6684 47.4753 94.4297 47.5346 94.2157 47.6493C94.0017 47.764 93.819 47.9306 93.6841 48.1342V48.1342ZM100.094 49.8419V50.2176H96.925C96.9967 51.161 97.4308 51.8228 98.2231 51.8228C98.6952 51.8192 99.1518 51.652 99.5169 51.3489L99.8794 51.9167C99.3794 52.2939 98.7706 52.4935 98.1472 52.4845C97.2833 52.4845 96.2043 51.8228 96.2043 49.923C96.2043 48.4117 97.0683 47.4683 98.2231 47.4683C99.4579 47.4896 100.107 48.4331 100.107 49.8419H100.094ZM99.4453 49.6498C99.3737 48.7063 99.0238 48.0489 98.1472 48.0489C97.5024 48.0489 96.9967 48.5185 96.925 49.6498H99.4453ZM104.557 45.688L103.913 46.0637V47.575H103.264V48.1342H103.913V51.3446C103.913 52.1002 104.199 52.4802 104.777 52.4802C105.067 52.4752 105.354 52.4114 105.62 52.2924L105.691 51.6306C105.489 51.7356 105.269 51.7994 105.042 51.8185C104.684 51.8185 104.536 51.6306 104.536 51.2507V48.1342H105.691V47.5707H104.536L104.557 45.688ZM109.025 47.4811C108.773 47.4801 108.524 47.539 108.299 47.6532C108.073 47.7674 107.877 47.9336 107.727 48.1385V45.688L107.078 46.0637V52.2966H107.727V49.5559C107.727 48.5185 108.233 48.0489 108.882 48.0489C109.674 48.0489 110.032 48.5185 110.032 49.5559V52.2966H110.681V49.4619C110.694 48.0574 110.045 47.4896 109.037 47.4896L109.025 47.4811ZM115.599 48.9881V52.2924H114.879V51.7246C114.705 51.9465 114.486 52.1285 114.238 52.2588C113.99 52.389 113.717 52.4645 113.437 52.4802C112.645 52.4802 111.924 52.1002 111.924 50.875C111.924 49.8376 112.788 49.3637 113.728 49.3637C114.13 49.3503 114.528 49.4477 114.879 49.6455V49.082C114.879 48.3263 114.521 48.0446 113.872 48.0446C113.409 48.0145 112.95 48.1472 112.573 48.4203L112.359 47.8567C112.811 47.5719 113.34 47.4389 113.872 47.4768C114.942 47.4896 115.599 47.8696 115.599 48.9881ZM114.879 50.2133C114.508 49.9982 114.083 49.9001 113.657 49.9315C113.008 49.9315 112.573 50.2133 112.573 50.875C112.556 51.0081 112.568 51.1435 112.608 51.2715C112.647 51.3996 112.715 51.5172 112.804 51.6161C112.894 51.715 113.004 51.7928 113.126 51.844C113.249 51.8952 113.381 51.9186 113.513 51.9124C113.784 51.9068 114.05 51.8352 114.287 51.7037C114.525 51.5722 114.728 51.3846 114.879 51.1568V50.2133ZM117.905 45.6838L117.256 46.0594V47.5707H116.607V48.1342H117.256V51.3446C117.256 52.1002 117.542 52.4802 118.099 52.4802C118.396 52.4786 118.691 52.4147 118.963 52.2924L119.034 51.6306C118.833 51.7369 118.612 51.8008 118.385 51.8185C118.027 51.8185 117.884 51.6306 117.884 51.2507V48.1342H119.034V47.5707H117.884L117.905 45.6838ZM124.227 49.5516C123.438 49.1759 123.148 48.9881 123.148 48.6081C123.148 48.2282 123.51 48.0446 123.94 48.0446C124.38 48.0144 124.816 48.1479 125.166 48.4203L125.525 47.9464C125.086 47.6228 124.554 47.4574 124.012 47.4768C123.148 47.4768 122.499 47.9464 122.499 48.702C122.499 49.4577 122.92 49.7437 123.868 50.1194C124.732 50.4951 125.023 50.6872 125.023 51.1568C125.023 51.5367 124.661 51.8185 124.012 51.8185C123.564 51.8017 123.134 51.6351 122.789 51.3446L122.368 51.8185C122.823 52.2352 123.411 52.4703 124.024 52.4802C124.817 52.4802 125.681 52.0063 125.681 51.0628C125.672 50.2261 125.099 49.9443 124.231 49.5644L124.227 49.5516ZM130.422 49.8376V50.2133H127.253C127.324 51.1568 127.83 51.8185 128.551 51.8185C129.024 51.8149 129.482 51.6477 129.849 51.3446L130.207 51.9124C129.709 52.2896 129.101 52.4892 128.479 52.4802C127.615 52.4802 126.604 51.8185 126.604 49.9187C126.604 48.4075 127.4 47.464 128.551 47.464C129.777 47.4896 130.426 48.4331 130.426 49.8419L130.422 49.8376ZM129.773 49.6455C129.773 48.702 129.351 48.0446 128.551 48.0446C127.83 48.0446 127.324 48.5142 127.253 49.6455H129.773ZM132.365 48.1342V47.5707H131.72V52.2924H132.365V49.5516C132.365 48.6081 132.727 48.0446 133.376 48.0446C133.63 48.0309 133.881 48.0965 134.097 48.2324L134.312 47.5707C134.057 47.4842 133.787 47.4523 133.52 47.4768C133.288 47.4772 133.061 47.5379 132.859 47.6531C132.658 47.7682 132.489 47.9339 132.369 48.1342H132.365ZM137.047 51.3446L136.975 51.5367L136.904 51.3446L135.682 47.5707H134.986L136.714 52.2924H137.287L139.019 47.5707H138.299L137.047 51.3446ZM143.533 49.8419C143.537 49.9709 143.512 50.0991 143.462 50.2176H140.364C140.44 51.161 140.87 51.8228 141.662 51.8228C142.134 51.8199 142.591 51.6526 142.956 51.3489L143.247 51.9167C142.781 52.3035 142.192 52.5053 141.59 52.4845C140.726 52.4845 139.643 51.8228 139.643 49.923C139.643 48.4117 140.507 47.4683 141.59 47.4683C142.888 47.4896 143.533 48.4331 143.533 49.8419ZM142.888 49.6498C142.813 48.7063 142.467 48.0489 141.59 48.0489C140.87 48.0489 140.44 48.5185 140.364 49.6498H142.888ZM146.197 49.5559C145.404 49.1802 145.189 48.9923 145.189 48.6124C145.189 48.2324 145.48 48.0489 145.91 48.0489C146.352 48.0057 146.793 48.1407 147.137 48.4245L147.495 47.9507C147.057 47.627 146.524 47.4617 145.982 47.4811C145.139 47.4811 144.54 47.9507 144.54 48.7063C144.54 49.4619 144.903 49.748 145.839 50.1236C146.702 50.4993 146.993 50.6914 146.993 51.161C146.993 51.541 146.631 51.8228 145.982 51.8228C145.534 51.806 145.104 51.6394 144.76 51.3489L144.338 51.8228C144.793 52.2394 145.381 52.4746 145.994 52.4845C146.858 52.4845 147.651 52.0106 147.651 51.0671C147.63 50.2261 147.061 49.9443 146.197 49.5644V49.5559ZM153.041 51.0671L152.898 51.5495L152.75 51.0757L151.528 47.5835H150.879L152.535 52.3052L151.886 54.0128H152.535L154.912 47.6091H154.192L153.041 51.0671ZM159.666 49.9358C159.666 51.541 158.731 52.4973 157.559 52.4973C156.387 52.4973 155.545 51.5538 155.545 49.9358C155.545 48.3178 156.48 47.4811 157.652 47.4811C158.823 47.4811 159.666 48.3392 159.666 49.9443V49.9358ZM159.017 49.9358C159.017 48.7063 158.44 48.0489 157.576 48.0489C156.788 48.0489 156.21 48.7063 156.21 49.9358C156.21 51.1653 156.788 51.8228 157.576 51.8228C158.44 51.8313 159.009 51.1696 159.009 49.9443L159.017 49.9358ZM163.843 50.3115C163.843 51.3489 163.337 51.8228 162.692 51.8228C161.9 51.8228 161.538 51.3489 161.538 50.3115V47.575H160.888V50.4993C160.888 51.8227 161.538 52.4845 162.545 52.4845C162.808 52.4887 163.068 52.4207 163.297 52.2877C163.525 52.1547 163.714 51.9616 163.843 51.7288V52.2966H164.488V47.5835H163.839L163.843 50.3115ZM172.124 49.8419C172.124 51.5495 171.332 52.4845 170.396 52.4845C170.134 52.4858 169.874 52.4269 169.637 52.3123C169.4 52.1978 169.191 52.0304 169.027 51.8228V52.2966H168.382V46.0637L169.027 45.688V48.1342C169.207 47.927 169.429 47.7611 169.677 47.6477C169.926 47.5343 170.195 47.476 170.468 47.4768C171.404 47.4896 172.124 48.1342 172.124 49.8419ZM171.475 49.8419C171.475 48.7063 171.054 48.0489 170.253 48.0489C170.014 48.064 169.781 48.1305 169.57 48.2438C169.359 48.3572 169.173 48.5148 169.027 48.7063V51.161C169.176 51.3672 169.372 51.5346 169.597 51.6496C169.823 51.7646 170.072 51.8239 170.325 51.8228C171.117 51.8313 171.475 51.1696 171.475 49.8419ZM177.022 49.8419C177.025 49.9709 177.001 50.0991 176.95 50.2176H173.852C173.852 51.161 174.358 51.8228 175.15 51.8228C175.621 51.8069 176.076 51.6411 176.448 51.3489L176.735 51.9167C176.264 52.2927 175.679 52.4931 175.079 52.4845C174.215 52.4845 173.132 51.8228 173.132 49.923C173.132 48.4117 173.996 47.4683 175.079 47.4683C176.288 47.4896 177.022 48.4331 177.022 49.8419ZM176.377 49.6498C176.305 48.7063 175.955 48.0489 175.079 48.0489C174.358 48.0489 173.924 48.5185 173.852 49.6498H176.377ZM179.04 45.688L178.391 46.0637V47.575H177.814V48.1342H178.396V51.3446C178.396 52.1002 178.682 52.4802 179.259 52.4802C179.55 52.4762 179.837 52.4123 180.102 52.2924L180.174 51.6306C179.976 51.746 179.753 51.8105 179.525 51.8185C179.167 51.8185 179.023 51.6306 179.023 51.2507V48.1342H180.174V47.5707H179.023L179.04 45.688ZM182.281 45.688L181.561 46.0637V47.575H180.983V48.1342H181.561V51.3446C181.561 52.1002 181.919 52.4802 182.496 52.4802C182.786 52.4684 183.071 52.4049 183.339 52.2924L183.411 51.6306C183.187 51.7459 182.941 51.81 182.69 51.8185C182.332 51.8185 182.269 51.6306 182.269 51.2507V48.1342H183.453V47.5707H182.302L182.281 45.688ZM188.182 49.8419V50.2176H185.012C185.084 51.161 185.518 51.8228 186.31 51.8228C186.782 51.8192 187.239 51.652 187.604 51.3489L187.967 51.9167C187.468 52.2939 186.861 52.4935 186.239 52.4845C185.371 52.4845 184.292 51.8228 184.292 49.923C184.292 48.4117 185.156 47.4683 186.31 47.4683C187.537 47.4896 188.186 48.4331 188.186 49.8419H188.182ZM187.533 49.6498C187.461 48.7063 187.111 48.0489 186.239 48.0489C185.59 48.0489 185.084 48.5185 185.012 49.6498H187.533ZM191.279 47.4811C191.047 47.4808 190.819 47.5411 190.617 47.6563C190.414 47.7714 190.245 47.9375 190.124 48.1385V47.575H189.408V52.2966H190.124V49.5559C190.124 48.6124 190.487 48.0489 191.136 48.0489C191.386 48.0558 191.631 48.12 191.852 48.2367L192 47.575C191.772 47.4856 191.526 47.4563 191.283 47.4896L191.279 47.4811ZM183.79 24.0778C183.421 24.0761 183.061 23.9638 182.755 23.7549C182.449 23.5461 182.211 23.2501 182.071 22.9044C181.931 22.5587 181.895 22.1787 181.968 21.8124C182.041 21.4461 182.22 21.1099 182.481 20.8463C182.743 20.5827 183.075 20.4034 183.437 20.3311C183.799 20.2588 184.174 20.2968 184.515 20.4402C184.856 20.5835 185.147 20.8259 185.351 21.1368C185.556 21.4476 185.666 21.8129 185.666 22.1866C185.668 22.4365 185.622 22.6844 185.528 22.9157C185.435 23.147 185.297 23.357 185.122 23.5333C184.947 23.7096 184.739 23.8487 184.51 23.9422C184.282 24.0357 184.037 24.0818 183.79 24.0778ZM185.303 22.1866C185.307 21.8826 185.222 21.5842 185.058 21.3294C184.895 21.0745 184.66 20.8748 184.384 20.7555C184.108 20.6362 183.803 20.6028 183.508 20.6595C183.213 20.7162 182.942 20.8605 182.728 21.0739C182.514 21.2874 182.368 21.5604 182.308 21.8583C182.248 22.1562 182.276 22.4654 182.39 22.7467C182.504 23.028 182.698 23.2686 182.947 23.438C183.197 23.6074 183.49 23.6978 183.79 23.6978C183.988 23.703 184.186 23.6676 184.37 23.5938C184.555 23.52 184.723 23.4092 184.864 23.2681C185.005 23.127 185.117 22.9585 185.192 22.7727C185.268 22.5868 185.305 22.3875 185.303 22.1866ZM184.296 22.3744L184.658 23.1301H184.237L183.874 22.3744H183.512V23.1301H183.09V21.1492H184.026C184.115 21.1427 184.205 21.155 184.289 21.1854C184.373 21.2159 184.45 21.2637 184.515 21.326C184.58 21.3882 184.632 21.4634 184.667 21.5469C184.701 21.6304 184.719 21.7203 184.717 21.8109C184.709 21.9362 184.664 22.0563 184.59 22.1564C184.515 22.2565 184.413 22.3323 184.296 22.3744ZM184.296 21.8109C184.297 21.7726 184.29 21.7345 184.276 21.699C184.262 21.6635 184.241 21.6313 184.214 21.6044C184.187 21.5775 184.155 21.5566 184.12 21.5429C184.085 21.5292 184.047 21.5231 184.009 21.5249H183.504V21.9987H184.009C184.153 21.9987 184.296 21.9048 184.296 21.8109Z" fill="#C1C4D6"/>
</g>
<defs>
<clipPath id="clip0_742_4168">
<rect width="192" height="54" fill="white"/>
</clipPath>
</defs>
</svg>
