<svg width="130" height="62" viewBox="0 0 130 62" fill="none" xmlns="http://www.w3.org/2000/svg">
<path d="M65.3975 54.1351C72.1006 48.5026 76.351 40.1215 76.351 30.7625C76.351 21.4036 72.1006 13.0225 65.3975 7.39C70.8414 2.81564 77.903 0.0541992 85.6195 0.0541992C102.837 0.0541992 116.795 13.8028 116.795 30.7625C116.795 47.7223 102.837 61.4709 85.6195 61.4709C77.903 61.4709 70.8414 58.7094 65.3975 54.1351Z" fill="#E6E8F0"/>
<path d="M65.3975 7.38985C58.6943 13.0223 54.4439 21.4034 54.4439 30.7624C54.4439 40.1213 58.6943 48.5024 65.3975 54.1349C59.9536 58.7093 52.8919 61.4707 45.1755 61.4707C27.9577 61.4707 13.9999 47.7221 13.9999 30.7624C13.9999 13.8026 27.9577 0.0540499 45.1755 0.0540484C52.8919 0.0540477 59.9536 2.81549 65.3975 7.38985Z" fill="#C1C4D6"/>
<path d="M65.3976 54.135C72.1006 48.5025 76.351 40.1215 76.351 30.7626C76.351 21.4037 72.1006 13.0226 65.3976 7.39014C58.6945 13.0226 54.4441 21.4037 54.4441 30.7626C54.4441 40.1215 58.6945 48.5025 65.3976 54.135Z" fill="#D8DAE5"/>
</svg>
