<svg width="192" height="36" viewBox="0 0 192 36" fill="none" xmlns="http://www.w3.org/2000/svg">
<path d="M31.9332 0.47463C31.6315 0.309229 31.3228 0.15821 31.014 0H3.36102C1.87602 0.560776 0.667762 1.70086 0 3.17139V27.7947C1.22793 30.2181 3.17157 31.0667 5.8239 31.0308C13.5423 30.9157 21.2608 30.9876 28.9371 30.9876C29.6271 31.0175 30.3179 30.9571 30.993 30.8078C31.969 30.591 32.8431 30.0382 33.4699 29.2414C34.0967 28.4445 34.4384 27.4518 34.4382 26.4283C34.4382 19.1219 34.4382 11.813 34.4382 4.5018C34.4485 3.6535 34.2169 2.82058 33.7719 2.10522C33.327 1.38985 32.6879 0.823151 31.9332 0.47463ZM20.9029 26.8957C20.9029 27.9025 20.7766 28.0032 19.7381 28.0104C17.2402 28.0104 14.7422 28.0104 12.2442 28.0104C9.87257 28.0104 7.50091 28.0104 5.12925 28.0104C3.29086 28.0104 2.81372 27.5286 2.78565 25.6876C2.78565 24.7671 2.78565 23.8394 2.78565 22.9117C2.78565 21.5957 2.86985 21.5238 4.189 21.5166C7.19919 21.5166 10.2234 21.4231 13.2336 21.5166C14.5069 21.6134 15.7858 21.4334 16.9865 20.9885C18.1872 20.5436 19.2827 19.8438 20.2012 18.9349C20.3486 18.7911 20.4959 18.5394 20.7275 18.64C20.959 18.7407 20.9099 19.014 20.9099 19.2297C20.9029 21.7827 20.952 24.3428 20.9029 26.8957ZM13.2617 18.7479C10.2515 18.5897 7.22725 18.7479 4.21005 18.7479C2.87687 18.7479 2.8067 18.676 2.8067 17.3096C2.8067 15.2745 2.8067 13.2465 2.8067 11.2185C2.8067 9.19057 2.8067 7.1626 2.8067 5.12745C2.8067 3.48781 3.31191 2.97004 4.91173 2.97004C8.02015 2.97004 11.1286 2.86216 14.223 2.97004C17.3173 3.07791 19.1978 5.02677 20.3416 7.72353C22.6711 13.2249 18.2155 18.9996 13.2617 18.7479ZM23.6114 8.44986C23.1827 6.65335 22.3433 4.98706 21.1625 3.58849C20.7766 3.12105 21.0292 2.97723 21.4783 2.97723C24.285 2.97723 27.0917 2.97723 29.8984 2.97723C30.1166 2.95533 30.3368 2.98288 30.5434 3.05795C30.75 3.13301 30.938 3.25374 31.094 3.41158C31.25 3.56942 31.3703 3.7605 31.4462 3.97128C31.5221 4.18206 31.5518 4.40737 31.5333 4.63124C31.5894 5.86816 31.5333 7.09788 31.5333 8.3348C31.5333 9.00359 31.1965 9.28406 30.572 9.28406H24.6288C24.3866 9.30846 24.1446 9.2349 23.9545 9.07906C23.7645 8.92322 23.6413 8.69743 23.6114 8.44986ZM31.5052 26.3276C31.5155 26.551 31.4797 26.7742 31.4001 26.9825C31.3205 27.1907 31.199 27.3794 31.0433 27.5362C30.8877 27.693 30.7015 27.8144 30.4969 27.8924C30.2924 27.9704 30.0741 28.0032 29.8563 27.9888C28.1372 28.0463 26.4181 27.9888 24.692 27.9888C24.0815 27.9888 23.8499 27.6652 23.857 27.0827V22.4874C23.8362 22.3554 23.8464 22.2202 23.8868 22.0931C23.9271 21.9659 23.9965 21.8504 24.0891 21.7562C24.1817 21.662 24.2949 21.5918 24.4192 21.5514C24.5436 21.511 24.6756 21.5015 24.8042 21.5238C25.7936 21.5238 26.7829 21.5238 27.7723 21.5238C28.6775 21.5238 29.5826 21.5238 30.4878 21.5238C31.3929 21.5238 31.5052 21.6748 31.5263 22.4874C31.5613 23.7747 31.5684 25.0547 31.5052 26.3276ZM31.5052 17.698C31.5052 18.5537 31.3579 18.6904 30.4948 18.7048C28.6003 18.7048 26.7058 18.7048 24.8112 18.7048C24.1867 18.7048 23.8359 18.4387 23.8359 17.7627C23.8359 16.2237 23.8359 14.6776 23.8359 13.1314C23.8359 12.4555 24.1587 12.1966 24.7972 12.2109C25.7866 12.2109 26.7759 12.2109 27.7723 12.2109C28.7687 12.2109 29.5826 12.2109 30.4808 12.2109C31.3789 12.2109 31.4912 12.3404 31.5122 13.189C31.5613 14.6992 31.5613 16.2022 31.5263 17.698H31.5052ZM99.2379 10.2837C98.438 12.6065 97.603 14.9221 96.7821 17.2449C95.1542 21.8402 93.4561 26.4067 91.9124 31.0308C91.0494 33.634 89.5057 35.3456 86.8814 36H83.2818C83.2024 34.9017 83.179 33.7999 83.2117 32.6992C83.2117 32.0376 83.5204 31.6636 84.1519 31.7427C86.3552 32.0088 87.2112 30.6784 87.7445 28.7799C87.8806 28.3955 87.9414 27.9874 87.9234 27.5789C87.9053 27.1705 87.8087 26.7697 87.6392 26.3995C85.3167 21.1858 83.0362 15.9577 80.7558 10.7295C80.0541 9.18338 80.0962 9.17619 81.7662 9.17619C82.6714 9.17619 83.5835 9.23372 84.4817 9.17619C84.8639 9.11927 85.2531 9.21198 85.5717 9.43586C85.8902 9.65974 86.1148 9.99838 86.2008 10.3843C87.3375 13.189 88.5374 15.972 89.7092 18.7551C89.9056 19.2153 89.9267 19.992 90.4108 19.9992C90.7827 19.9992 90.8108 19.2153 90.9581 18.7695C91.8423 16.1015 92.7123 13.4263 93.5894 10.7511C94.1017 9.19776 94.1087 9.19776 95.7716 9.19776C96.6768 9.19776 97.582 9.19776 98.4871 9.19776C99.3923 9.19776 99.5958 9.34159 99.259 10.2837H99.2379ZM53.3905 3.30803C53.0186 3.21454 52.6327 3.1642 52.2537 3.09229C50.5098 2.85401 48.7483 2.77939 46.9912 2.86936C45.223 2.86936 43.4828 2.86936 41.6935 2.86936C40.7182 2.86936 40.6059 3.03476 40.5568 4.04155C40.5568 4.35078 40.5568 4.66001 40.5568 4.96924V18.1942C40.5568 21.2361 40.5568 24.2781 40.5568 27.32C40.5568 28.7151 40.6691 28.8158 42.0374 28.8374C42.9729 28.8374 43.9085 28.8374 44.8441 28.8374C46.1843 28.8374 46.2474 28.7008 46.2965 27.2841C46.2965 25.5222 46.2965 23.7603 46.2965 21.9984C46.2965 18.9565 45.9387 19.4455 48.8296 19.4167C50.5524 19.4836 52.276 19.3069 53.9518 18.8917C55.1824 18.6176 56.3049 17.9727 57.1751 17.0398C58.0453 16.1069 58.6235 14.9286 58.8355 13.6564C59.1038 12.2706 59.1418 10.8483 58.9477 9.44946C58.4776 5.94726 56.7796 4.12066 53.4115 3.30803H53.3905ZM50.0224 14.6992C49.0892 14.7855 48.1349 14.6992 47.2157 14.7495C46.514 14.7495 46.3106 14.4187 46.3246 13.7787C46.3246 12.9013 46.3246 12.024 46.3246 11.1466V8.51458C46.3075 8.4045 46.3155 8.29185 46.3482 8.18551C46.3808 8.07918 46.4371 7.98207 46.5126 7.90187C46.5882 7.82166 46.6809 7.76055 46.7834 7.72336C46.8859 7.68617 46.9955 7.67392 47.1034 7.68758C48.4302 7.59628 49.7624 7.63481 51.082 7.80264C51.6472 7.87085 52.1699 8.1439 52.556 8.57248C52.942 9.00107 53.1658 9.55697 53.187 10.1398C53.2046 10.4464 53.2046 10.7538 53.187 11.0603C53.2431 13.6133 52.5134 14.4762 50.0435 14.6992H50.0224ZM78.1526 15.1666C78.1526 12.0743 76.6019 10.0104 73.6759 9.16181C70.2517 8.1694 66.8486 8.77347 63.4455 9.37036C63.3465 9.36974 63.2484 9.39061 63.1578 9.43159C63.0673 9.47257 62.9862 9.53274 62.9199 9.60814C62.8536 9.68353 62.8037 9.77245 62.7733 9.86905C62.743 9.96565 62.7329 10.0677 62.7438 10.1686C62.7438 11.2257 62.7438 12.2829 62.7438 13.34C62.7438 13.865 63.0455 14.016 63.5227 13.9225C63.9998 13.829 64.5401 13.7643 65.0523 13.6924C66.8777 13.3714 68.7306 13.2437 70.5815 13.3112C71.2338 13.3025 71.8653 13.5465 72.3497 13.9944C72.5876 14.2518 72.7565 14.5678 72.8401 14.9117C72.9237 15.2557 72.9192 15.616 72.8269 15.9577C72.5462 16.5402 71.9989 16.3172 71.5638 16.3244C69.799 16.3054 68.0347 16.3943 66.2802 16.5905C63.0946 17.0651 61.565 18.6688 61.1861 21.9193C61.1286 22.6622 61.1451 23.4091 61.2352 24.1486C61.5088 27.2337 63.4805 29.0747 66.5118 29.1826C68.5438 29.2465 70.5552 28.7498 72.3357 27.7443C72.7918 27.4998 73.1286 27.3632 73.2058 28.0895C73.2619 28.6576 73.704 28.7655 74.153 28.8086C75.0605 28.8374 75.9657 28.8374 76.8685 28.8086C78.0964 28.8086 78.1877 28.6936 78.1947 27.4351C78.1947 25.3208 78.1947 23.2066 78.1947 21.0923C78.1806 19.1362 78.1877 17.1514 78.1736 15.1666H78.1526ZM72.8269 23.4079C72.8269 23.638 72.5602 23.7387 72.3708 23.8322C71.2591 24.424 70.0305 24.7486 68.7782 24.7815C67.2556 24.7815 66.589 24.0623 66.5469 22.5378C66.4978 20.632 67.0591 20.0208 68.9536 19.9345C69.4658 19.9345 69.9851 19.9345 70.4973 19.9345C70.5837 19.9273 70.6705 19.9273 70.7569 19.9345C71.4586 20.0639 72.4409 19.5318 72.7707 20.294C73.0659 21.3074 73.0853 22.3841 72.8269 23.4079ZM191.999 16.648C191.677 12.8366 190.021 10.0679 186.386 9.15462C183.989 8.53608 181.478 8.55092 179.089 9.19776C177.879 9.47159 176.77 10.0891 175.888 10.9794C175.005 11.8698 174.386 12.997 174.1 14.2317C173.284 17.3139 173.284 20.5631 174.1 23.6452C174.843 26.5218 176.759 28.1902 179.566 28.8518C181.255 29.223 182.994 29.3008 184.709 29.0819C188.919 28.6145 191.291 26.3204 191.908 22.0631C191.982 21.053 191.982 20.0385 191.908 19.0284H191.985C191.978 18.2373 192.034 17.4391 191.964 16.648H191.999ZM186.498 22.2141C186.345 22.8167 186.017 23.3578 185.559 23.767C185.101 24.1762 184.533 24.4345 183.93 24.5082C183.547 24.567 183.16 24.5934 182.772 24.5873C180.387 24.5873 179.222 23.638 178.892 21.2577C178.619 19.515 178.66 17.7358 179.011 16.008C179.133 15.3296 179.463 14.7086 179.952 14.2353C180.442 13.762 181.066 13.4609 181.734 13.3759C182.243 13.2779 182.762 13.2513 183.278 13.2968C185.312 13.4694 186.421 14.505 186.702 16.5689C186.775 17.2567 186.81 17.9482 186.807 18.64C186.866 19.8403 186.762 21.0431 186.498 22.2141ZM137.381 15.3464C137.381 11.8801 135.613 9.72992 132.287 9.03236C129.136 8.37076 126.028 8.85258 122.919 9.4207C122.791 9.43008 122.665 9.46671 122.551 9.52829C122.437 9.58987 122.336 9.67504 122.256 9.77844C122.176 9.88184 122.117 10.0012 122.084 10.129C122.051 10.2568 122.044 10.3903 122.063 10.521C122.063 11.3192 122.063 12.1103 122.063 12.9013C122.063 13.865 122.162 13.9225 123.165 13.8002C124.168 13.678 125.039 13.5198 125.972 13.3903C127.384 13.1976 128.812 13.1662 130.231 13.2968C130.789 13.2968 131.325 13.5241 131.719 13.9287C132.114 14.3333 132.336 14.8821 132.336 15.4543C132.378 16.0296 132.217 16.4107 131.571 16.4107C130.926 16.4107 130.28 16.4107 129.634 16.4107C127.865 16.3562 126.096 16.5375 124.372 16.9501C123.392 17.1629 122.502 17.6854 121.827 18.444C121.153 19.2026 120.727 20.159 120.611 21.1786C120.411 22.3539 120.411 23.5558 120.611 24.7311C120.762 25.9401 121.336 27.0519 122.227 27.8599C123.117 28.668 124.263 29.1175 125.453 29.1251C126.961 29.2762 128.483 29.0593 129.894 28.4922C130.533 28.2333 131.15 27.9169 131.782 27.6364C132.076 27.4998 132.392 27.4063 132.483 27.845C132.694 28.636 133.276 28.672 133.887 28.6648C134.497 28.6576 135.29 28.6648 135.957 28.6648C137.36 28.6648 137.36 28.5929 137.36 27.133C137.36 25.1051 137.36 23.0771 137.36 21.0491C137.381 19.1434 137.381 17.2521 137.381 15.3464ZM129.663 24.6376C128.954 24.832 128.216 24.8881 127.487 24.803C127.032 24.7815 126.6 24.5843 126.28 24.251C125.96 23.9176 125.775 23.4727 125.761 23.0052C125.719 22.6108 125.719 22.213 125.761 21.8186C125.755 21.3704 125.912 20.9358 126.201 20.5995C126.49 20.2631 126.891 20.0492 127.326 19.9992C127.494 19.9548 127.665 19.9283 127.838 19.9201H129.663H131.599C131.707 19.9055 131.817 19.9168 131.919 19.953C132.022 19.9893 132.115 20.0495 132.192 20.129C132.268 20.2085 132.325 20.3051 132.359 20.4111C132.392 20.5171 132.401 20.6297 132.385 20.7399C132.385 20.7831 132.385 20.8334 132.385 20.8765C132.596 23.523 132.259 23.9832 129.663 24.6376ZM118.211 4.07031C118.211 4.90451 118.211 5.7459 118.211 6.5801C118.176 7.59409 118.057 7.72353 117.067 7.73792C114.913 7.73792 112.759 7.73792 110.605 7.73792C110.17 7.73792 109.742 7.73792 109.314 7.73792C108.668 7.73792 108.36 8.02557 108.367 8.68718C108.367 9.92409 108.367 11.161 108.367 12.3907C108.367 13.3184 108.521 13.4551 109.447 13.4766C111.173 13.4766 112.893 13.4766 114.619 13.4766H116.682C116.811 13.4596 116.942 13.4728 117.066 13.5152C117.189 13.5577 117.302 13.6282 117.395 13.7216C117.488 13.8151 117.56 13.9289 117.604 14.0546C117.648 14.1803 117.664 14.3146 117.65 14.4475C117.65 15.332 117.65 16.2093 117.65 17.0939C117.65 18.1438 117.467 18.2805 116.394 18.2805C114.289 18.2805 112.184 18.2805 110.079 18.2805C108.367 18.2805 108.367 18.2805 108.36 20.028C108.36 22.4083 108.36 24.7887 108.36 27.169C108.36 28.5138 108.247 28.6073 106.956 28.6073C105.96 28.6073 104.971 28.6073 103.981 28.6073C102.83 28.6073 102.704 28.4706 102.683 27.3272C102.683 25.8242 102.683 24.3284 102.683 22.8326V5.02677C102.683 4.63124 102.683 4.23572 102.683 3.84019C102.672 3.71777 102.688 3.59439 102.729 3.47888C102.77 3.36336 102.835 3.25857 102.92 3.17199C103.006 3.08541 103.108 3.01919 103.221 2.97806C103.334 2.93693 103.455 2.92191 103.574 2.93408H104.479H117.032C118.057 2.98442 118.183 3.09229 118.218 4.07031H118.211ZM156.235 24.9253C156.235 25.853 156.235 26.7735 156.235 27.7012C156.235 28.3052 155.94 28.5569 155.4 28.6648C153.816 29.0132 152.2 29.1868 150.579 29.1826C149.267 29.2228 147.957 29.0604 146.692 28.7008C145.51 28.4106 144.428 27.795 143.562 26.9205C142.697 26.046 142.081 24.9458 141.78 23.7387C140.927 20.711 140.908 17.5002 141.724 14.4618C142.03 13.1418 142.699 11.9395 143.652 10.9975C144.605 10.0555 145.801 9.41342 147.099 9.14742C149.906 8.42829 152.663 8.80943 155.428 9.31282C155.647 9.33475 155.848 9.44324 155.99 9.61518C156.131 9.78712 156.202 10.0089 156.186 10.2333C156.186 11.161 156.186 12.0815 156.186 13.0092C156.186 13.6205 155.835 13.8722 155.253 13.7787L152.818 13.3831C151.665 13.2078 150.49 13.2493 149.352 13.5054C148.75 13.5999 148.188 13.872 147.734 14.2882C147.281 14.7045 146.955 15.2471 146.797 15.8498C146.219 17.8956 146.219 20.0677 146.797 22.1135C146.94 22.6496 147.22 23.1368 147.609 23.5239C147.997 23.911 148.481 24.1839 149.008 24.314C150.386 24.6624 151.819 24.7163 153.218 24.4722C153.919 24.3931 154.579 24.2565 155.26 24.1342C155.94 24.012 156.235 24.2709 156.242 24.8965L156.235 24.9253ZM166.669 14.5338C166.669 16.4251 166.669 18.3236 166.669 20.2149C166.669 21.0132 166.669 21.8042 166.669 22.5953C166.739 24.1774 167.272 24.7527 168.774 24.8606C168.947 24.8712 169.12 24.8712 169.293 24.8606C169.925 24.8606 170.261 25.1266 170.254 25.7954C170.254 26.5865 170.254 27.3847 170.254 28.1758C170.272 28.2971 170.262 28.4207 170.226 28.5376C170.191 28.6546 170.13 28.7618 170.048 28.8515C169.967 28.9412 169.867 29.011 169.756 29.0559C169.644 29.1007 169.525 29.1194 169.405 29.1107C167.903 29.2827 166.383 29.1976 164.908 28.859C163.955 28.6298 163.107 28.0717 162.508 27.2782C161.909 26.4847 161.594 25.5041 161.617 24.501V19.5893C161.617 17.9569 161.617 16.3316 161.617 14.6992C161.617 13.2609 161.617 13.2609 160.27 13.2249H159.757C159.126 13.2249 158.789 12.9301 158.803 12.2685C158.803 11.9592 158.803 11.65 158.803 11.3408C158.803 9.39912 158.803 9.37755 160.705 9.24091C161.364 9.19776 161.631 8.93168 161.624 8.27008C161.624 7.39273 161.624 6.50819 161.624 5.63084C161.624 5.04115 161.883 4.72473 162.473 4.71754C163.553 4.71754 164.627 4.71754 165.708 4.71754C166.367 4.71754 166.627 5.06992 166.627 5.70995C166.627 6.54415 166.627 7.38554 166.627 8.21974C166.627 9.05393 166.753 9.18338 167.623 9.22653C168.185 9.22653 168.746 9.22653 169.3 9.22653C169.854 9.22653 170.233 9.55733 170.233 10.2046C170.233 10.8518 170.233 11.5278 170.233 12.1822C170.191 13.0164 170.051 13.1386 169.202 13.2034C168.774 13.2034 168.346 13.2034 167.911 13.2034C166.788 13.2609 166.683 13.34 166.676 14.505L166.669 14.5338Z" fill="#C1C4D6"/>
</svg>
