<svg width="93" height="93" viewBox="0 0 93 93" fill="none" xmlns="http://www.w3.org/2000/svg">
<path d="M88.0899 73.6424C87.1534 73.6486 86.4897 74.2471 86.4494 75.1392C86.4298 75.5682 86.4753 76.0035 86.4205 76.4273C86.4008 76.5782 86.1776 76.8129 86.037 76.8211C85.2981 76.8625 84.5575 76.8625 83.8187 76.8211C83.6677 76.8129 83.43 76.5668 83.4052 76.4076C83.3442 75.9859 83.3959 75.5486 83.3742 75.1196C83.362 74.7368 83.2058 74.3726 82.9367 74.1001C82.6676 73.8275 82.3055 73.6666 81.9228 73.6496C81.5442 73.6268 81.1645 73.6268 80.7858 73.6496C80.3475 73.6786 80.1428 73.5276 80.18 73.0656C80.2069 72.7234 80.18 72.3771 80.18 72.0318C80.18 70.6053 80.18 70.6053 81.6179 70.5846C82.755 70.5681 83.3866 69.9644 83.3752 68.8872C83.369 67.8535 82.7291 67.2498 81.6179 67.2394C80.1852 67.227 80.1852 67.227 80.1707 65.8015C80.1604 64.6447 79.5722 64.0441 78.4279 64.0379C76.9869 64.0235 76.9869 64.0235 76.9694 62.5607C76.9559 61.4453 76.3564 60.8489 75.2389 60.8365C73.7845 60.821 73.7845 60.821 73.768 59.3717C73.7556 58.2728 73.1478 57.6381 72.1017 57.636C71.0555 57.6339 70.4302 58.2676 70.425 59.3603C70.4188 60.7372 70.4136 62.1142 70.425 63.4952C70.425 63.887 70.304 64.0721 69.8916 64.0472C69.5319 64.0245 69.168 64.0472 68.8083 64.0472C67.3756 64.0472 67.3756 64.0472 67.3611 62.6093C67.3508 61.4526 66.7626 60.852 65.6183 60.8458C64.1773 60.8313 64.1773 60.8313 64.1597 59.3685C64.1463 58.2759 63.5312 57.6443 62.481 57.6453C61.4308 57.6463 60.8271 58.2831 60.8147 59.382C60.8002 60.8292 60.8002 60.8292 59.3448 60.8458C58.249 60.8582 57.6143 61.4712 57.6154 62.5183C57.6164 63.5655 58.248 64.1785 59.3448 64.1899C59.568 64.1899 59.7923 64.1899 60.0156 64.1899C60.8136 64.1899 60.8147 64.1899 60.8147 64.9838C60.8147 68.4248 60.8147 71.8668 60.8147 75.3098C60.8147 76.3642 61.4349 76.9772 62.4779 76.9938C62.8387 77 63.2087 76.9535 63.5581 77.0165C63.7276 77.0475 63.9809 77.2687 63.9902 77.4155C64.0341 78.154 64.0341 78.8944 63.9902 79.6329C63.9809 79.7807 63.7266 80.0061 63.5602 80.033C63.1736 80.0929 62.7715 80.0454 62.3756 80.0578C61.4783 80.0846 60.825 80.6987 60.825 81.5836C60.8085 83.8206 60.8085 86.0579 60.825 88.2956C60.8333 89.1919 61.5269 89.7987 62.4541 89.7997C63.4403 89.7997 64.1081 89.2187 64.1525 88.3039C64.1732 87.8749 64.1267 87.4397 64.1814 87.0158C64.2011 86.8649 64.4254 86.6303 64.566 86.622C65.3048 86.5806 66.0454 86.5806 66.7843 86.622C66.9352 86.6303 67.1719 86.8773 67.1978 87.0355C67.2588 87.4573 67.2061 87.8935 67.2278 88.3225C67.2732 89.1898 67.9389 89.7883 68.8403 89.7945C69.8306 89.8018 70.5077 89.226 70.5563 88.3173C70.5769 87.922 70.5769 87.5259 70.5563 87.1306C70.5356 86.7254 70.7041 86.5868 71.1021 86.5899C72.8232 86.6034 74.5443 86.6065 76.2706 86.5899C76.7058 86.5899 76.836 86.7543 76.8308 87.1699C76.8143 88.5634 76.8174 89.961 76.8308 91.3513C76.8391 92.3644 77.4883 93.0002 78.4848 92.997C79.5247 92.997 80.1645 92.3768 80.1738 91.3327C80.1842 90.1801 80.1738 89.0275 80.1738 87.8739C80.1738 86.6013 80.1738 86.6013 81.4701 86.5962H81.6768C82.7674 86.5713 83.3845 85.949 83.3731 84.8864C83.37 83.8692 82.7353 83.2489 81.6665 83.2489C80.3227 83.2417 78.9789 83.2251 77.6402 83.2572C77.1058 83.2706 76.9404 83.0814 76.9745 82.5697C77.0129 82.0191 77.0129 81.4664 76.9745 80.9158C76.9332 80.3606 77.113 80.1622 77.6981 80.1735C79.4182 80.2087 81.1393 80.1859 82.8604 80.1859C84.5815 80.1859 86.3026 80.1911 88.0237 80.1859C89.1898 80.1859 89.7862 79.5905 89.7914 78.4451C89.7976 77.3442 89.81 76.2422 89.7831 75.1372C89.7552 74.2275 89.0626 73.6352 88.0899 73.6424ZM72.1027 83.2489C70.5811 83.2489 70.5811 83.2489 70.5811 81.7386C70.5811 80.188 70.5811 80.188 72.1161 80.188C73.6512 80.188 73.6377 80.188 73.6377 81.6983C73.6367 83.2489 73.6367 83.2489 72.1027 83.2489ZM76.8391 72.1662C76.8391 73.5256 76.8267 74.8839 76.8463 76.2422C76.8463 76.6754 76.7295 76.8563 76.2644 76.8532C73.4954 76.8366 70.7261 76.8366 67.9565 76.8532C67.4944 76.8532 67.3704 76.6805 67.3725 76.2453C67.3856 73.4928 67.3856 70.7407 67.3725 67.9889C67.3725 67.501 67.5513 67.3759 68.0082 67.3779C70.7434 67.3931 73.4782 67.3931 76.2127 67.3779C76.7223 67.3779 76.8577 67.5599 76.8494 68.0406C76.8215 69.4113 76.8381 70.7872 76.8381 72.1631L76.8391 72.1662Z" fill="#1273FF"/>
<path d="M51.3708 85.0414C51.3656 83.8278 50.7816 83.2499 49.5577 83.2468C48.2139 83.2468 46.87 83.2334 45.5262 83.2468C45.0993 83.253 44.9339 83.099 44.9598 82.6741C44.9805 82.2954 44.9805 81.9158 44.9598 81.537C44.9519 81.1452 44.7934 80.7714 44.5172 80.4935C44.2409 80.2155 43.8682 80.0546 43.4764 80.0443C43.0629 80.0247 42.6494 80.0288 42.236 80.0381C41.9165 80.0454 41.7584 79.9254 41.7636 79.5874C41.7739 78.8638 41.7418 78.1402 41.7863 77.4166C41.7956 77.2625 42.0344 77.0258 42.1998 76.9979C42.5667 76.9338 42.9533 76.9752 43.3317 76.9752C44.8047 76.9752 44.8047 76.9752 44.8243 78.4689C44.8378 79.5306 45.459 80.1756 46.4679 80.1746C47.5275 80.1746 48.1601 79.5461 48.1663 78.4679C48.1746 77.1437 48.1942 75.8174 48.157 74.4932C48.1415 73.9267 48.3203 73.7478 48.8878 73.7623C50.2637 73.7974 51.6416 73.7923 53.0226 73.7623C53.9943 73.7416 54.5814 73.0687 54.5732 72.0742C54.5659 71.1376 53.9685 70.4471 53.0743 70.4399C50.8208 70.4192 48.5667 70.4192 46.3118 70.4399C45.4849 70.4471 44.8647 71.0973 44.8336 71.9336C44.8134 72.3124 44.8134 72.692 44.8336 73.0707C44.8605 73.4997 44.6858 73.6434 44.263 73.6383C42.8686 73.6196 41.4721 73.631 40.0817 73.631C38.7048 73.631 37.3279 73.6176 35.9469 73.6393C35.489 73.6465 35.3267 73.478 35.3587 73.0356C35.3908 72.5931 35.3587 72.1755 35.3639 71.7444C35.3763 70.4285 35.214 70.5877 36.5082 70.5743C36.6974 70.5743 36.8876 70.5805 37.0757 70.565C37.9544 70.4936 38.5322 69.893 38.5601 69.0143C38.5732 68.6188 38.5732 68.2228 38.5601 67.8266C38.5508 67.4927 38.7038 67.3666 39.0274 67.3707C39.7334 67.38 40.4394 67.3831 41.1444 67.3707C41.5082 67.3635 41.6323 67.5289 41.6209 67.8721C41.6075 68.267 41.6075 68.6639 41.6209 69.0588C41.6592 69.9581 42.3207 70.5691 43.2449 70.5722C44.232 70.5722 44.9267 69.9974 44.9484 69.0867C44.9763 67.9 44.9732 66.7091 44.9484 65.5255C44.9319 64.6882 44.3003 64.0783 43.4661 64.0348C43.0712 64.0162 42.6742 64.0142 42.2794 64.0348C41.9093 64.0503 41.7346 63.9139 41.7553 63.5283C41.7729 63.2016 41.7553 62.874 41.7553 62.5473C41.7418 61.4588 41.1227 60.8282 40.0693 60.8313C39.046 60.8313 38.4257 61.467 38.4154 62.5225C38.4102 62.8667 38.4051 63.212 38.4154 63.5562C38.4257 63.8725 38.312 64.039 37.9709 64.0338C37.248 64.0235 36.5244 64.0235 35.8001 64.0338C35.459 64.039 35.3474 63.8725 35.3536 63.5562C35.3629 63.1427 35.368 62.7292 35.3474 62.3157C35.3019 61.4071 34.6238 60.821 33.6449 60.8303C32.7145 60.8396 32.055 61.4433 32.0158 62.3395C31.993 62.7003 31.993 63.0621 32.0158 63.4229C32.0571 63.9087 31.8493 64.0431 31.3873 64.0431C29.9938 64.0214 28.5963 64.0276 27.206 64.0431C26.2963 64.0514 25.6358 64.6634 25.6182 65.5338C25.5934 66.7205 25.5934 67.9076 25.6182 69.095C25.6358 69.922 26.2725 70.5422 27.1088 70.5784C27.4875 70.5981 27.8671 70.5981 28.2458 70.5784C28.6707 70.5515 28.8227 70.7179 28.8175 71.1449C28.7989 72.5735 28.8102 74.0021 28.8102 75.4297C28.8102 76.8315 28.8102 76.8315 27.392 76.8418C26.2053 76.8501 25.613 77.4352 25.6109 78.6178C25.6068 80.6852 25.6068 82.75 25.6109 84.8119C25.6109 85.9955 26.2043 86.5806 27.3899 86.5899C28.802 86.6013 28.802 86.6013 28.8113 88C28.8185 89.2105 29.4015 89.7883 30.6296 89.7904C32.7294 89.7904 34.8288 89.7904 36.9279 89.7904C38.402 89.7904 38.402 89.7904 38.4154 91.2376C38.4154 91.2893 38.4154 91.341 38.4154 91.3927C38.4433 92.3458 39.0573 92.9805 40.0114 92.9857C42.1801 92.9988 44.3485 92.9988 46.5165 92.9857C47.544 92.9784 48.1405 92.3541 48.1611 91.3317C48.1911 89.8224 48.1911 89.8224 49.659 89.7894C50.7516 89.7656 51.3522 89.1691 51.3604 88.0847C51.377 87.0737 51.3739 86.0565 51.3708 85.0414ZM44.8026 89.2694C44.7964 89.3996 44.5701 89.6219 44.4367 89.6281C43.6821 89.6622 42.9223 89.6653 42.1626 89.6281C42.024 89.6209 41.8059 89.3841 41.7832 89.2301C41.7274 88.8425 41.7687 88.4403 41.7584 88.0454C41.7336 87.0923 41.1165 86.4638 40.1613 86.4545C38.7679 86.44 37.3703 86.4349 35.981 86.4545C35.5159 86.4628 35.3102 86.3201 35.3546 85.8343C35.3712 85.5244 35.3712 85.2138 35.3546 84.9039C35.337 83.8609 34.723 83.2561 33.6686 83.2417C33.3244 83.2365 32.9792 83.2282 32.6349 83.2417C32.2907 83.2551 32.147 83.0959 32.1512 82.7475C32.1636 81.8699 32.1512 80.9902 32.1512 80.1156C32.1512 79.2556 32.1625 78.3945 32.145 77.5313C32.1377 77.1468 32.2483 76.9586 32.6722 76.9721C33.342 76.9948 34.016 76.9948 34.6848 76.9721C35.0983 76.9586 35.2306 77.1447 35.2109 77.5313C35.1923 77.891 35.1996 78.2549 35.2109 78.6147C35.2399 79.5337 35.8622 80.1487 36.7884 80.1746C37.1832 80.1859 37.5864 80.1384 37.9719 80.2014C38.0692 80.2317 38.1577 80.2852 38.2297 80.3572C38.3017 80.4292 38.3552 80.5177 38.3854 80.6149C38.4464 81.0181 38.3978 81.4419 38.4133 81.8554C38.4464 82.7207 39.0604 83.3347 39.9225 83.3781C40.0259 83.3781 40.1293 83.3781 40.2326 83.3781C41.6002 83.3854 41.6002 83.3854 41.6095 84.7809C41.6095 84.8667 41.6095 84.9525 41.6095 85.0383C41.6478 85.9284 42.2649 86.5445 43.1601 86.5755C43.5736 86.5889 43.987 86.5455 44.4005 86.6013C44.5525 86.622 44.784 86.8473 44.7913 86.9879C44.8419 87.755 44.8388 88.5137 44.8026 89.2694Z" fill="#1273FF"/>
<path d="M46.5941 53.8246C44.7902 53.8918 42.9844 53.9032 41.1795 53.928C40.1376 53.9445 39.7944 54.2753 39.7871 55.3318C39.7799 56.3469 39.7871 57.3631 39.7871 58.3782C39.7871 59.4368 40.1686 59.8193 41.2178 59.8255C43.1456 59.8306 45.0735 59.8472 47.0013 59.8255C48.7803 59.8017 50.4911 59.4254 52.0448 58.5354C54.7324 56.994 56.069 54.4914 56.1558 51.5473C56.3263 45.8214 56.2106 40.0863 56.2054 34.3542C56.2054 33.6213 55.6627 33.093 54.9236 33.0848C53.6832 33.0703 52.4427 33.0703 51.2023 33.0848C50.2947 33.0951 49.8161 33.5923 49.7965 34.5113C49.7882 34.9413 49.7965 35.3724 49.7965 35.8024C49.7965 39.1249 49.7965 42.4466 49.7965 45.7677C49.7965 46.0923 49.8078 46.4106 49.3406 46.4044C48.617 46.3941 47.8934 46.4344 47.1698 46.3817C45.8849 46.2876 45.0755 45.5785 44.8781 44.4031C44.8011 43.9109 44.7587 43.4138 44.751 42.9156C44.7034 41.0549 44.7582 39.1941 44.6156 37.3479C44.4553 35.2804 42.9234 33.5747 40.9718 33.2543C39.8791 33.0744 38.7462 33.1054 37.6319 33.1106C37.0116 33.1106 36.6933 33.5024 36.685 34.1154C36.6705 35.1822 36.6488 36.2511 36.7046 37.32C36.7191 37.5836 36.9713 37.9878 37.1987 38.0601C38.1529 38.363 38.3358 39.0701 38.3358 39.9209C38.3358 41.1613 38.3441 42.4018 38.3358 43.6423C38.3195 44.7617 38.5076 45.8747 38.8909 46.9265C39.9019 49.6845 41.992 51.0687 44.7685 51.4625C46.2736 51.6755 47.8128 51.6558 49.3664 51.7427C49.1308 52.8674 47.9968 53.7719 46.5941 53.8246Z" fill="#1273FF"/>
<path d="M91.5094 25.6315C89.2352 25.6108 86.9639 25.6108 84.6952 25.6315C83.8952 25.6398 83.2873 26.2941 83.2481 27.1025C83.2253 27.4812 83.2253 27.8609 83.2481 28.2396C83.2822 28.6996 83.0858 28.834 82.6454 28.8278C81.2347 28.8092 79.822 28.8092 78.4072 28.8278C77.4841 28.8382 76.866 29.4729 76.8381 30.395C76.8189 30.7217 76.8189 31.0493 76.8381 31.376C76.8825 31.8649 76.7006 32.0396 76.1982 32.0324C74.4409 32.0076 72.6836 32.0231 70.9325 32.0231C69.1422 32.0231 67.3528 32.0097 65.5573 32.0231C64.6332 32.0334 64.0264 32.7157 64.0243 33.6771C64.0222 34.6385 64.6177 35.3145 65.5366 35.3538C65.9501 35.3714 66.3636 35.3218 66.7719 35.3817C66.9383 35.4065 67.1916 35.635 67.2009 35.7828C67.2443 36.5213 67.2443 37.2617 67.2009 38.0002C67.1916 38.147 66.9373 38.3671 66.7678 38.3971C66.4173 38.4602 66.0442 38.4137 65.6875 38.4199C64.6445 38.4364 64.0336 39.0504 64.0233 40.1049C64.0233 40.4491 64.0099 40.7933 64.0233 41.1386C64.0367 41.4839 63.8806 41.6348 63.5312 41.6224C63.1353 41.6089 62.7394 41.611 62.3435 41.6224C61.4225 41.6586 60.8209 42.3233 60.8219 43.2898C60.8229 44.2563 61.4225 44.919 62.3456 44.9562C62.7591 44.9727 63.1725 44.9221 63.5809 44.9841C63.6791 45.0136 63.7686 45.0667 63.8416 45.1388C63.9145 45.2109 63.9688 45.2997 63.9995 45.3976C64.0605 45.8007 64.0109 46.2246 64.0264 46.6329C64.0615 47.5385 64.7159 48.1535 65.6369 48.1608C66.6499 48.1701 67.3218 47.5819 67.3601 46.6381C67.3776 46.2246 67.327 45.8059 67.389 45.3976C67.4138 45.2353 67.6485 44.9841 67.8025 44.9841C68.5261 44.9396 69.2497 44.9707 69.9733 44.9603C70.3051 44.9603 70.4353 45.1009 70.4302 45.4265C70.4209 46.1315 70.4178 46.8376 70.4302 47.5436C70.4374 47.9054 70.2751 48.0336 69.9309 48.0212C69.5526 48.0078 69.1732 48.0119 68.7938 48.0212C67.8356 48.0502 67.2247 48.7066 67.2267 49.6969C67.2288 50.6872 67.8407 51.3292 68.8073 51.3592C69.014 51.3664 69.2207 51.3592 69.4275 51.3592C70.426 51.3592 70.4074 51.3592 70.4343 52.366C70.4467 52.8219 70.4581 53.3108 70.6255 53.7212C70.9088 54.4138 71.6913 54.6961 72.51 54.5224C73.2594 54.3632 73.7504 53.7988 73.7628 53.0297C73.7814 51.601 73.7845 50.1724 73.7628 48.7448C73.7566 48.291 73.9179 48.1246 74.3644 48.1525C74.7251 48.1763 75.087 48.1763 75.4477 48.1525C76.4091 48.0936 76.9849 47.4289 76.9694 46.4303C76.9559 45.4813 76.3357 44.8456 75.3888 44.8197C74.9939 44.8084 74.5908 44.8559 74.2052 44.7929C74.1074 44.7621 74.0185 44.7079 73.9465 44.6349C73.8744 44.5619 73.8213 44.4724 73.7918 44.3742C73.7297 43.971 73.7794 43.5472 73.7628 43.1389C73.7615 42.7376 73.6019 42.3531 73.3188 42.0688C73.0356 41.7845 72.6517 41.6233 72.2505 41.6203C71.8556 41.6048 71.4587 41.6027 71.0638 41.6203C70.7186 41.6327 70.5583 41.5025 70.5656 41.1417C70.579 40.4357 70.5769 39.7296 70.5656 39.0246C70.5656 38.6979 70.6938 38.5512 71.0256 38.5605C71.4205 38.5698 71.8174 38.5739 72.2123 38.5543C73.1478 38.5077 73.7401 37.8968 73.7628 36.9654C73.7732 36.5871 73.7752 36.2077 73.7628 35.8283C73.7545 35.5068 73.8796 35.3528 74.2156 35.3579C74.9392 35.3672 75.6628 35.3362 76.3863 35.3807C76.5393 35.39 76.7719 35.6298 76.7998 35.7942C76.8649 36.1436 76.8174 36.5178 76.8226 36.8744C76.8381 37.9288 77.4428 38.547 78.4879 38.5563C79.5329 38.5656 80.5883 38.5667 81.6375 38.5563C82.7426 38.546 83.368 37.9309 83.3659 36.8796C83.3638 35.8283 82.7302 35.2256 81.6313 35.2132C80.1666 35.1987 80.1666 35.1987 80.1666 33.7432C80.1666 32.1565 80.1666 32.1565 81.773 32.1565C83.2129 32.1565 83.2129 32.1565 83.2201 33.5882C83.2294 34.7026 83.83 35.3528 84.8544 35.3548C85.9326 35.3548 86.559 34.7232 86.5642 33.6068C86.5642 32.2309 86.5735 30.8539 86.5642 29.477C86.5642 29.109 86.683 28.9405 87.0707 28.9508C87.7581 28.9684 88.4465 28.9653 89.1381 28.9508C89.4885 28.9446 89.6436 29.0801 89.6301 29.4367C89.6156 29.8316 89.6188 30.2285 89.6301 30.6234C89.6642 31.529 90.3186 32.1441 91.2396 32.1523C92.2526 32.1616 92.9421 31.5745 92.9607 30.6307C92.9845 29.4605 92.9824 28.2903 92.9607 27.116C92.9638 26.29 92.3384 25.6387 91.5094 25.6315Z" fill="#1273FF"/>
<path d="M6.90511 22.4559C8.36883 22.4672 9.83151 22.4559 11.2942 22.4559C12.7414 22.4559 14.1886 22.4641 15.6357 22.4559C19.2713 22.4342 22.4396 19.2823 22.4582 15.6559C22.4726 12.747 22.4726 9.83842 22.4582 6.93017C22.4385 3.20252 19.2537 0.0279109 15.5117 0.0103374C12.6173 -0.00344579 9.72607 -0.00344579 6.83791 0.0103374C3.20239 0.0258434 0.032024 3.18391 0.0154848 6.80819C0.00101301 9.71713 0.00101301 12.6261 0.0154848 15.535C0.0278892 19.2368 3.21376 22.429 6.90511 22.4559ZM3.36158 7.20515C3.42773 5.25345 5.24601 3.48369 7.19764 3.35964C8.53215 3.27281 9.87699 3.3431 11.2167 3.3431C12.5739 3.3431 13.9343 3.28832 15.2884 3.35654C17.2917 3.45992 19.0428 5.16972 19.0997 7.17207C19.1762 9.85048 19.1937 12.5351 19.0997 15.2125C19.0253 17.2417 17.239 19.0373 15.2078 19.1055C12.4788 19.2006 9.74157 19.1903 7.01364 19.0942C5.16538 19.028 3.43703 17.3017 3.37191 15.4533C3.27784 12.7057 3.27164 9.95075 3.36158 7.20515Z" fill="#1273FF"/>
<path d="M77.3839 22.4569C78.8125 22.4662 80.241 22.4569 81.6696 22.4569C83.1499 22.4569 84.6301 22.4662 86.1145 22.4569C89.6808 22.4311 92.8646 19.2668 92.8853 15.7118C92.9025 12.7677 92.9025 9.82429 92.8853 6.88159C92.8594 3.22319 89.658 0.0330794 85.9905 0.0124047C83.0651 -0.00275681 80.139 -0.00275681 77.2123 0.0124047C73.6212 0.0299782 70.456 3.20665 70.4395 6.80612C70.4257 9.71506 70.4257 12.624 70.4395 15.5329C70.4581 19.2606 73.6532 22.4342 77.3839 22.4569ZM73.8093 7.09143C73.8817 5.23071 75.7227 3.48783 77.5906 3.36378C78.9592 3.27385 80.3382 3.34621 81.713 3.34621C83.0703 3.34621 84.4317 3.28625 85.7848 3.35861C87.6806 3.46198 89.4534 5.13767 89.5195 7.02631C89.6167 9.75537 89.6229 12.4927 89.5299 15.2218C89.4596 17.2438 87.663 19.0332 85.6287 19.1045C82.9007 19.1986 80.1635 19.1893 77.4345 19.09C75.6069 19.0239 73.8796 17.3244 73.8104 15.4926C73.7049 12.6953 73.6998 9.88873 73.8093 7.09143Z" fill="#1273FF"/>
<path d="M22.4551 77.4403C22.4344 73.6331 19.2764 70.4595 15.4807 70.443C12.607 70.4306 9.73262 70.4306 6.85755 70.443C3.16724 70.4574 0.0216966 73.6155 0.00825851 77.3184C-0.000700238 80.1756 -0.000700238 83.0328 0.00825851 85.8901C0.0227303 89.6953 3.18689 92.872 6.9816 92.8885C9.83875 92.9009 12.6959 92.9009 15.553 92.8885C19.2899 92.8751 22.4344 89.7377 22.454 86.011C22.4613 84.5824 22.454 83.1538 22.454 81.7252C22.454 80.2966 22.4623 78.869 22.4551 77.4403ZM19.0935 85.735C19.0263 87.6495 17.1925 89.4131 15.2688 89.5402C13.6748 89.6436 12.0726 89.6353 10.4745 89.6436C9.3922 89.6436 8.30371 89.625 7.22762 89.5568C5.13851 89.4224 3.45358 87.7663 3.34711 85.6896C3.27785 84.3364 3.33367 82.976 3.33367 81.6177C3.33367 80.2945 3.26441 78.9672 3.35021 77.6492C3.47839 75.6923 5.23568 73.8708 7.18524 73.8026C9.93075 73.7075 12.6856 73.7148 15.4311 73.8026C17.2783 73.8657 19.0149 75.5858 19.0811 77.4341C19.1855 80.2004 19.1906 82.9729 19.0935 85.735Z" fill="#1273FF"/>
<path d="M59.0781 9.75021C59.4566 9.77562 59.8365 9.77562 60.2151 9.75021C60.6803 9.71609 60.855 9.88356 60.8457 10.3653C60.8188 11.6554 60.8353 12.9496 60.8364 14.2366C60.8364 15.6218 61.3801 16.1563 62.7828 16.1594C62.9715 16.1718 63.1607 16.1718 63.3493 16.1594C63.9023 16.086 64.0512 16.3268 64.0481 16.8613C64.0284 20.3202 64.0357 23.7791 64.0398 27.2379C64.0398 28.3554 64.6476 28.9643 65.762 28.9663C68.9106 28.9712 72.0593 28.9712 75.2079 28.9663C76.3584 28.9663 76.9879 28.3595 76.9859 27.2876C76.9838 26.2156 76.3429 25.6263 75.1966 25.6243C72.8046 25.6243 70.4126 25.6119 68.0216 25.6325C67.5224 25.6325 67.3714 25.4702 67.3745 24.9792C67.3931 22.1571 67.3838 19.335 67.3828 16.5129C67.3828 13.7084 67.3828 10.9039 67.3828 8.09933C67.3828 7.04492 66.7626 6.43295 65.7185 6.41641C65.3919 6.41641 65.0632 6.3947 64.7386 6.41641C64.3003 6.44948 64.1566 6.25308 64.1804 5.83855C64.2006 5.45978 64.2006 5.0802 64.1804 4.70144C64.1711 4.3093 64.0108 3.93589 63.7329 3.65911C63.455 3.38234 63.0809 3.22357 62.6888 3.21596C62.2753 3.19838 61.8618 3.20045 61.4483 3.21079C61.1217 3.21906 60.9759 3.0826 60.9832 2.75181C60.9935 2.32177 60.9997 1.8907 60.9749 1.4617C60.9242 0.600601 60.2575 0.0144722 59.3448 0.0144722C58.3948 0.00620235 57.666 0.581994 57.6557 1.4524C57.6281 3.74109 57.6281 6.02979 57.6557 8.31848C57.6526 9.09172 58.2945 9.69645 59.0781 9.75021Z" fill="#1273FF"/>
<path d="M90.2297 44.9944C90.6339 44.9324 91.0566 44.9862 91.4701 44.9624C92.356 44.9107 92.9679 44.3122 92.9845 43.4469C93.0052 42.2754 93.0052 41.1038 92.9845 39.9322C92.9679 39.0711 92.3302 38.4581 91.4639 38.425C91.0504 38.4106 90.6318 38.4592 90.2235 38.3982C90.1262 38.3678 90.0378 38.3144 89.9658 38.2423C89.8938 38.1703 89.8403 38.0819 89.81 37.9847C89.748 37.5805 89.7976 37.1577 89.781 36.7442C89.7449 35.8211 89.0823 35.2205 88.1158 35.2205C87.1492 35.2205 86.4846 35.8211 86.4474 36.7411C86.4319 37.136 86.4308 37.5329 86.4474 37.9278C86.4598 38.2762 86.3233 38.4343 85.9646 38.4219C85.5511 38.4085 85.1377 38.4075 84.7242 38.4281C83.8373 38.4716 83.245 39.1425 83.2429 40.0821C83.2408 41.0218 83.8228 41.703 84.7045 41.7568C85.0302 41.7764 85.3578 41.764 85.6855 41.765C86.4412 41.765 86.4422 41.765 86.4432 42.5476C86.4432 43.857 86.4432 45.1647 86.4432 46.4706C86.4432 47.8817 86.436 49.2927 86.4484 50.7089C86.4484 51.0759 86.3306 51.2444 85.9429 51.2351C85.2379 51.2165 84.5298 51.2537 83.828 51.2093C83.6739 51.1989 83.4383 50.9612 83.4093 50.7958C83.3452 50.4278 83.3917 50.0422 83.3845 49.6587C83.3649 48.6683 82.7529 48.0388 81.774 48.0264C80.6714 48.014 79.5688 48.014 78.4662 48.0264C77.479 48.0367 76.8525 48.658 76.8401 49.6401C76.8277 50.6221 76.835 51.6362 76.8401 52.6379C76.8401 54.0345 77.3777 54.572 78.7732 54.573C81.13 54.573 83.4879 54.5813 85.8447 54.5668C86.282 54.5668 86.4825 54.6909 86.4505 55.153C86.4258 55.5482 86.4276 55.9447 86.4556 56.3397C86.5011 57.0737 87.0759 57.7239 87.7943 57.7487C89.0482 57.7921 90.3072 57.8024 91.5611 57.7487C92.4914 57.7094 93.032 56.9703 92.9876 55.95C92.9483 55.0723 92.3178 54.4593 91.4174 54.4335C91.0225 54.4221 90.6194 54.4697 90.2338 54.4076C90.0694 54.3818 89.8203 54.1502 89.8121 53.9993C89.7676 53.2757 89.7986 52.5521 89.7883 51.8285C89.7883 51.4997 89.9216 51.3602 90.2503 51.3664C90.68 51.3843 91.1103 51.3795 91.5394 51.3519C92.479 51.2723 93.0248 50.5818 92.9866 49.5636C92.9545 48.6797 92.3312 48.0564 91.436 48.0264C91.0225 48.013 90.609 48.0564 90.1956 48.0005C90.0436 47.9799 89.8121 47.7556 89.8038 47.6139C89.7624 46.8754 89.7624 46.1351 89.8038 45.3966C89.8193 45.2529 90.0664 45.0192 90.2297 44.9944Z" fill="#1273FF"/>
<path d="M0.611929 47.8114C1.11844 48.3282 1.81309 48.2796 2.44882 48.0098C3.06387 47.7493 3.34813 47.2366 3.34917 46.5709C3.34917 45.1598 3.36157 43.7488 3.34917 42.3326C3.34917 41.9098 3.48768 41.733 3.91667 41.7609C4.27781 41.7821 4.63988 41.7821 5.00102 41.7609C5.93135 41.7134 6.5278 41.1034 6.55157 40.1721C6.56087 39.8278 6.57225 39.4826 6.55157 39.1383C6.5247 38.7248 6.67459 38.5315 7.11081 38.5605C7.47162 38.5811 7.83331 38.5811 8.19412 38.5605C9.13169 38.515 9.7271 37.9071 9.75294 36.9778C9.77162 36.6335 9.77162 36.2884 9.75294 35.9441C9.71676 35.482 9.92041 35.3507 10.3577 35.3569C11.7346 35.3755 13.1114 35.3734 14.4925 35.3569C15.552 35.3455 16.1464 34.7367 16.1629 33.676C16.1691 33.3153 16.1216 32.9452 16.1867 32.5958C16.2177 32.4989 16.2714 32.4109 16.3434 32.339C16.4153 32.267 16.5033 32.2133 16.6002 32.1823C17.0044 32.1203 17.4271 32.1751 17.8406 32.1503C18.802 32.0944 19.3777 31.4328 19.3633 30.4301C19.3488 29.4801 18.7296 28.8444 17.7827 28.8185C17.3879 28.8071 16.9847 28.8547 16.5992 28.7927C16.502 28.7621 16.4137 28.7086 16.3418 28.6366C16.2698 28.5646 16.2162 28.4763 16.1857 28.3792C16.1247 27.9574 16.1774 27.5212 16.1547 27.0922C16.1133 26.2838 15.5034 25.6387 14.6982 25.6315C12.424 25.6101 10.1526 25.6101 7.88401 25.6315C7.0033 25.6408 6.41616 26.3551 6.4172 27.2958C6.41823 28.2365 7.0064 28.9085 7.89435 28.955C8.30783 28.9767 8.72131 28.9746 9.13479 28.9612C9.48935 28.9498 9.62891 29.1007 9.62167 29.4522C9.60823 30.1231 9.59996 30.7961 9.62167 31.4649C9.63821 31.9001 9.46144 32.0324 9.04486 32.0272C7.65143 32.0107 6.25387 32.0138 4.86354 32.0272C3.84638 32.0355 3.22615 32.6578 3.21685 33.675C3.20651 34.7418 3.21685 35.8086 3.21685 36.8796C3.21685 38.4044 3.21685 38.4044 1.67974 38.4302C0.636734 38.4488 0.0258208 39.0629 0.0175512 40.1173C0.0092816 41.1717 0.0175512 42.2168 0.0175512 43.266C0.0175512 44.368 -0.0362002 45.4731 0.0444284 46.5688C0.0934329 47.0337 0.292667 47.4699 0.611929 47.8114Z" fill="#1273FF"/>
<path d="M25.6254 59.506C25.6626 60.2689 26.2374 60.9305 26.9796 60.9533C28.2345 60.9946 29.4935 61.005 30.7474 60.9533C31.6633 60.913 32.1946 60.1883 32.1605 59.1959C32.1326 58.3059 31.5155 57.6763 30.6265 57.6453C30.2481 57.6308 29.8688 57.6226 29.4894 57.6453C29.0759 57.6691 28.9498 57.4861 28.955 57.0933C28.9705 55.8528 28.9601 54.6123 28.9601 53.3718C28.9601 52.0983 28.9777 50.8247 28.9539 49.547C28.9374 48.6259 28.2541 48.0274 27.2855 48.0284C26.317 48.0295 25.6585 48.6342 25.6244 49.5574C25.6089 49.9533 25.6068 50.3492 25.6244 50.7451C25.6368 51.1007 25.4848 51.233 25.1334 51.232C23.3782 51.223 21.6229 51.223 19.8677 51.232C19.5297 51.232 19.3509 51.1286 19.3612 50.7617C19.3743 50.0553 19.3743 49.3496 19.3612 48.6446C19.354 48.2786 19.5245 48.1608 19.8646 48.1701C20.278 48.1886 20.6921 48.1848 21.1051 48.1587C22.0126 48.0853 22.5688 47.4351 22.5646 46.482C22.5646 45.564 21.9827 44.8538 21.1268 44.8435C18.8381 44.8159 16.5495 44.8159 14.2609 44.8435C13.406 44.8538 12.8241 45.5671 12.8199 46.4799C12.8199 47.4299 13.3926 48.1101 14.2671 48.1639C14.6623 48.1871 15.0586 48.1871 15.4538 48.1639C15.8828 48.138 16.0275 48.3107 16.0223 48.7345C16.0037 50.0784 16.013 51.4222 16.0161 52.7661C16.0161 53.9869 16.6002 54.571 17.8168 54.5741C19.142 54.5741 20.4673 54.5896 21.7914 54.5679C22.2504 54.5606 22.4685 54.6909 22.4241 55.1809C22.4054 55.5073 22.4054 55.8345 22.4241 56.1609C22.4468 57.1419 23.065 57.7539 24.0542 57.7745C24.4336 57.7828 24.8191 57.7352 25.1913 57.7993C25.2885 57.8296 25.377 57.883 25.449 57.9551C25.5211 58.0271 25.5745 58.1156 25.6048 58.2128C25.6554 58.6398 25.6037 59.076 25.6254 59.506Z" fill="#1273FF"/>
<path d="M32.1501 27.087C32.1429 26.2807 31.4979 25.6708 30.6916 25.6274C30.3129 25.6046 29.9332 25.6046 29.5545 25.6274C29.109 25.6584 28.9446 25.492 28.9529 25.0371C28.9756 23.7966 28.9601 22.5561 28.9601 21.3157H28.955C28.955 20.0431 28.9756 18.7685 28.9477 17.496C28.9281 16.606 28.2386 16.0178 27.2938 16.0157C26.349 16.0136 25.6316 16.5977 25.6265 17.4774C25.6058 20.8157 25.6058 24.154 25.6265 27.4922C25.6265 28.2986 26.2746 28.9095 27.0819 28.955C27.4426 28.9798 27.8045 28.9798 28.1652 28.955C28.6521 28.9147 28.834 29.0883 28.8247 29.5938C28.7978 31.0218 28.7978 32.45 28.8247 33.8787C28.8402 34.7491 29.5235 35.3517 30.4218 35.361C31.411 35.3724 32.1336 34.7987 32.1439 33.8973C32.1736 31.6292 32.1756 29.3592 32.1501 27.087Z" fill="#1273FF"/>
<path d="M35.2295 30.6544C35.2481 31.5527 35.9283 32.1616 36.8535 32.1647C37.8396 32.1647 38.5074 31.5869 38.5581 30.6761C38.5834 30.35 38.5834 30.0223 38.5581 29.6962C38.5012 29.1452 38.6873 28.8888 39.2713 28.9591C39.5631 28.9813 39.8561 28.9813 40.1479 28.9591C41.1444 28.9229 41.7563 28.3172 41.7605 27.3258C41.7708 25.1591 41.7708 22.9917 41.7605 20.8236C41.7553 19.826 41.0906 19.211 40.0755 19.2161C39.0935 19.2161 38.4547 19.8364 38.4216 20.8081C38.4051 21.3033 38.5612 21.9938 38.3017 22.2408C38.0164 22.5117 37.3435 22.3938 36.838 22.4135C35.856 22.4507 35.2337 23.0585 35.2233 24.0458C35.212 25.1126 35.2233 26.1794 35.2233 27.2452C35.2244 28.3833 35.2068 29.5194 35.2295 30.6544Z" fill="#1273FF"/>
<path d="M40.03 16.1594C41.1134 16.1738 42.197 16.1738 43.281 16.1594C44.3644 16.1459 44.9618 15.5329 44.966 14.4423C44.9732 12.8597 44.966 11.277 44.966 9.69439C44.966 8.09519 44.9846 6.49497 44.9515 4.89578C44.9401 4.52204 44.8311 4.15779 44.6352 3.8393C44.2538 3.2418 43.4144 3.04436 42.6867 3.29038C42.3729 3.39234 42.1004 3.59272 41.9095 3.8618C41.7187 4.13088 41.6196 4.45432 41.6271 4.78413C41.6168 7.07179 41.6271 9.36049 41.6199 11.6481C41.6199 12.9641 41.7729 12.8049 40.4828 12.8173C40.3278 12.8173 40.1727 12.8173 40.0187 12.8173C39.0491 12.8452 38.4309 13.4872 38.4268 14.4713C38.4195 15.4823 39.0336 16.1408 40.03 16.1594Z" fill="#1273FF"/>
<path d="M3.93838 57.7725C4.28262 57.7937 4.62784 57.7937 4.97208 57.7725C5.97167 57.728 6.56605 57.0778 6.55261 56.0554C6.54021 55.0847 5.91379 54.448 4.93074 54.4366C3.865 54.4242 2.79822 54.4283 1.72627 54.4366C0.612973 54.4428 0.0092894 55.0475 0.0051546 56.164C-0.00104761 57.729 0.0051546 59.2941 0.0051546 60.8592C0.0051546 62.5132 -0.00621611 64.161 0.0051546 65.8118C0.0134242 66.7319 0.661556 67.3624 1.57018 67.3821C2.68554 67.4069 3.33884 66.7763 3.34194 65.6464C3.34815 63.2223 3.35228 60.7972 3.33677 58.372C3.34091 57.9223 3.48562 57.7383 3.93838 57.7725Z" fill="#1273FF"/>
<path d="M59.4119 89.6581C59.0511 89.6395 58.6895 89.6395 58.3286 89.6581C57.8903 89.6881 57.7632 89.4947 57.7684 89.0802C57.7849 87.6867 57.7818 86.2891 57.7684 84.8988C57.7601 83.8836 57.1213 83.2582 56.1144 83.252C55.0807 83.2468 54.4336 83.8722 54.4243 84.906C54.414 85.9904 54.4243 87.0768 54.4243 88.1581C54.4243 89.6322 54.4243 89.6322 52.9317 89.6508H52.88C51.8628 89.6694 51.2323 90.2949 51.2261 91.2924C51.2219 92.3313 51.8422 92.9795 52.8759 92.9908C53.9426 93.0012 55.0094 92.9908 56.0803 92.9908C57.1988 92.9908 58.3183 93.0157 59.4357 92.9836C60.4043 92.9567 60.9863 92.2827 60.977 91.2841C60.9635 90.3279 60.3495 89.6819 59.4119 89.6581Z" fill="#1273FF"/>
<path d="M20.857 64.039C19.7726 64.0317 18.6862 64.039 17.6049 64.039C16.1691 64.039 16.1691 64.039 16.1578 62.6041C16.1474 61.467 15.5375 60.8354 14.4697 60.8385C13.4288 60.8385 12.823 61.4805 12.8158 62.5835C12.8024 64.0224 12.8024 64.0224 11.3366 64.039C10.246 64.0514 9.6134 64.6685 9.61547 65.7188C9.61754 66.7691 10.2522 67.378 11.3521 67.3821C12.9181 67.3883 14.4842 67.3821 16.0492 67.3821C17.6504 67.3821 19.2537 67.3893 20.8508 67.3821C21.9465 67.3738 22.5677 66.7463 22.5615 65.6888C22.5512 64.6665 21.9165 64.0462 20.857 64.039Z" fill="#1273FF"/>
<path d="M57.7704 65.665C57.7528 64.6778 57.1368 64.069 56.1568 64.0359C55.6637 64.0193 54.9691 64.1641 54.7334 63.9025C54.4657 63.6058 54.5939 62.9391 54.5732 62.4315C54.5339 61.4412 53.8899 60.8303 52.8717 60.8365C51.8949 60.8437 51.256 61.4639 51.2292 62.4356C51.2292 62.6248 51.2292 62.814 51.2292 63.0032C51.223 64.133 51.3325 64.0142 50.2099 64.0452C49.7551 64.0576 49.2651 64.071 48.8568 64.2426C48.158 64.5362 47.8748 65.3487 48.065 66.1809C48.2252 66.8807 48.8341 67.3697 49.6156 67.3769C51.0414 67.3893 52.4675 67.3893 53.894 67.3769C54.292 67.3769 54.4615 67.5113 54.4388 67.9165C54.4181 68.2938 54.4254 68.6732 54.4388 69.0536C54.474 69.9592 55.1241 70.5753 56.0431 70.5846C57.0551 70.5949 57.7373 70.0088 57.7714 69.0712C57.7921 68.4706 57.7714 67.8679 57.7714 67.2663C57.7725 66.7308 57.7808 66.1974 57.7704 65.665Z" fill="#1273FF"/>
<path d="M17.6814 35.2256C16.655 35.2256 16.0275 35.8562 16.013 36.9065C15.9903 38.4023 15.9903 38.4023 14.4945 38.4261C13.4443 38.4426 12.8137 39.067 12.8127 40.0935C12.8117 41.12 13.4329 41.7588 14.4852 41.7681C15.5375 41.7774 16.5847 41.7681 17.6339 41.7681C18.7182 41.7681 19.8047 41.7795 20.8859 41.7681C21.9444 41.7537 22.5605 41.1221 22.5574 40.0883C22.5543 39.0546 21.9237 38.4436 20.8683 38.4281C19.3839 38.4054 19.3839 38.4054 19.3571 36.9013C19.3385 35.851 18.711 35.2246 17.6814 35.2256Z" fill="#1273FF"/>
<path d="M27.2773 9.75021C28.311 9.74401 28.9498 9.12066 28.9591 8.08176C28.9684 6.99943 28.9591 5.91091 28.9591 4.83375C28.9591 3.78554 28.9663 2.73734 28.9591 1.68809C28.9519 0.63885 28.3223 0.00723609 27.298 0.00516861C26.2736 0.00310114 25.6233 0.625411 25.6202 1.67052C25.612 3.80071 25.612 5.93193 25.6202 8.06418C25.6233 9.11963 26.2632 9.75951 27.2773 9.75021Z" fill="#1273FF"/>
<path d="M54.568 14.4299C54.5556 13.4303 53.9023 12.8132 52.8914 12.8152C51.8804 12.8173 51.2374 13.4355 51.2312 14.4465C51.2216 16.6111 51.2216 18.7765 51.2312 20.9425C51.2312 21.9214 51.8897 22.5551 52.8531 22.5603C53.8992 22.5654 54.5556 21.9504 54.568 20.9259C54.5794 19.8612 54.568 18.7954 54.568 17.7296C54.5711 16.6297 54.5815 15.5298 54.568 14.4299Z" fill="#1273FF"/>
<path d="M89.779 62.3323C89.7428 61.4205 89.0616 60.8313 88.0889 60.8364C87.1585 60.8427 86.4908 61.4412 86.4494 62.3323C86.4308 62.7261 86.4287 63.1231 86.4494 63.518C86.4649 63.8891 86.3264 64.0565 85.9419 64.0348C85.5286 64.0161 85.1145 64.0182 84.7014 64.041C83.8424 64.0886 83.2543 64.7574 83.2429 65.664C83.2336 66.6171 83.8021 67.3345 84.6735 67.3604C85.8757 67.3965 87.081 67.3965 88.2832 67.3604C89.1856 67.3335 89.7635 66.6926 89.7841 65.7829C89.7965 65.2329 89.7841 64.682 89.7841 64.1289C89.779 63.5366 89.8017 62.9339 89.779 62.3323Z" fill="#1273FF"/>
<path d="M85.0333 57.6412C83.8817 57.6226 82.7302 57.6226 81.5786 57.6412C80.6907 57.6567 80.0694 58.2935 80.0446 59.1918C80.0291 59.7583 80.0446 60.3289 80.0446 60.8933C80.0446 61.4433 80.0363 61.9932 80.0446 62.5473C80.0612 63.5583 80.7052 64.192 81.6985 64.1878C82.7322 64.1878 83.369 63.5676 83.3876 62.5256C83.3876 62.1813 83.4041 61.8371 83.3876 61.4918C83.3669 61.1083 83.5385 60.9698 83.9045 60.9832C84.3178 61.0048 84.7321 61.0003 85.1449 60.9698C86.0814 60.8881 86.6262 60.1966 86.5869 59.1794C86.5497 58.2904 85.9264 57.6546 85.0333 57.6412Z" fill="#1273FF"/>
<path d="M28.8216 12.8369C28.8216 13.4386 28.8051 14.0402 28.8216 14.6418C28.8516 15.5402 29.5173 16.1521 30.4394 16.1573C31.4483 16.1625 32.1171 15.5712 32.1532 14.6263C32.1698 14.2128 32.1191 13.7994 32.1811 13.3921C32.2114 13.2948 32.2648 13.2063 32.3369 13.1343C32.4089 13.0623 32.4974 13.0088 32.5946 12.9786C32.9978 12.9165 33.4216 12.9713 33.8289 12.9476C34.7902 12.8907 35.367 12.2312 35.3536 11.2305C35.3401 10.2805 34.723 9.63029 33.7803 9.61686C32.646 9.60032 31.5117 9.60032 30.3773 9.61686C29.4801 9.62926 28.8444 10.2526 28.8154 11.1344C28.8061 11.7019 28.8216 12.2694 28.8216 12.8369Z" fill="#1273FF"/>
<path d="M33.6304 22.5592C34.6424 22.5696 35.3164 21.9824 35.3588 21.0438C35.382 20.7179 35.382 20.3907 35.3588 20.0648C35.306 19.5356 35.4849 19.2937 36.0462 19.3536C36.3901 19.3843 36.736 19.3843 37.0799 19.3536C38.0298 19.2823 38.5911 18.6114 38.5663 17.5963C38.5446 16.6793 37.9254 16.0343 37.0085 16.0209C35.8742 16.0036 34.7399 16.0036 33.6056 16.0209C32.6598 16.0333 32.0437 16.669 32.0261 17.6262C32.0147 18.1762 32.0261 18.7261 32.0261 19.2802C32.0261 19.8643 32.0116 20.4494 32.0261 21.0376C32.054 21.9349 32.7104 22.5499 33.6304 22.5592Z" fill="#1273FF"/>
<path d="M11.2177 60.977C12.2297 60.9894 12.9274 60.4043 12.9481 59.4698C12.9729 58.3017 12.9709 57.1336 12.9481 55.9655C12.9305 55.0227 12.2421 54.4242 11.2446 54.4335C10.2925 54.4428 9.64131 55.0537 9.6165 55.9903C9.601 56.5568 9.6165 57.1274 9.6165 57.6908C9.6165 58.2749 9.60203 58.8599 9.6165 59.4481C9.64338 60.3496 10.2977 60.9657 11.2177 60.977Z" fill="#1273FF"/>
<path d="M65.4043 57.7539C66.6561 57.8004 67.9131 57.8055 69.1639 57.7539C70.0777 57.7135 70.6111 56.991 70.5769 55.9965C70.5501 55.1064 69.935 54.4697 69.0512 54.4407C68.4847 54.4231 67.9141 54.4407 67.3508 54.4407V54.4459C66.715 54.4459 66.0783 54.418 65.4446 54.4531C64.6177 54.4996 64.044 55.1819 64.0347 56.0637C64.0233 56.992 64.5701 57.7228 65.4043 57.7539Z" fill="#1273FF"/>
<path d="M52.8479 6.55286C53.8579 6.55906 54.5329 5.97087 54.5649 5.02913C54.5856 4.44507 54.5649 3.86101 54.5649 3.27178C54.5649 2.68255 54.5815 2.10262 54.5649 1.51959C54.5329 0.601635 53.862 0.00413504 52.8976 0.00413504C51.9331 0.00413504 51.2529 0.60577 51.2364 1.52476C51.2137 2.69633 51.2137 3.86445 51.2364 5.02913C51.2529 5.93365 51.9279 6.54562 52.8479 6.55286Z" fill="#1273FF"/>
<path d="M60.9677 17.5322C60.9356 16.6142 60.2647 16.0157 59.3003 16.0167C58.3359 16.0178 57.6557 16.6184 57.6391 17.5373C57.6164 18.7055 57.6164 19.8736 57.6391 21.0417C57.6557 21.9411 58.3307 22.553 59.2507 22.5603C60.2606 22.5665 60.9356 21.9783 60.9677 21.0365C60.9883 20.4525 60.9677 19.8684 60.9677 19.2792C60.9677 18.69 60.9883 18.1152 60.9677 17.5322Z" fill="#1273FF"/>
<path d="M78.3669 44.9655C78.9334 44.9841 79.504 44.9655 80.0674 44.9655V44.9603C80.6876 44.9603 81.3078 44.9934 81.9218 44.9521C82.8625 44.89 83.4134 44.1943 83.3814 43.1813C83.3535 42.2933 82.7384 41.6472 81.8526 41.6307C80.6855 41.611 79.5164 41.6079 78.3493 41.6307C77.4345 41.6493 76.837 42.3377 76.8401 43.3032C76.8432 44.2688 77.4438 44.9345 78.3669 44.9655Z" fill="#1273FF"/>
<path d="M23.7493 38.5387C25.0176 38.5946 26.2922 38.5977 27.5605 38.5387C28.4722 38.4964 28.9932 37.7665 28.9591 36.7711C28.9281 35.8872 28.3079 35.2556 27.4199 35.2298C26.8535 35.2132 26.2829 35.2298 25.7195 35.2298C25.0993 35.2298 24.4791 35.207 23.8588 35.236C23.0432 35.2732 22.4447 35.9255 22.4116 36.7607C22.3817 37.7293 22.9058 38.5015 23.7493 38.5387Z" fill="#1273FF"/>
<path d="M89.779 84.7995C89.7511 83.8485 89.0843 83.2489 88.093 83.2489C87.1348 83.2489 86.4629 83.8609 86.4463 84.7861C86.4264 85.937 86.4264 87.0879 86.4463 88.2388C86.4608 89.1691 87.1296 89.7894 88.0754 89.7894C89.0812 89.7894 89.748 89.197 89.7779 88.2501C89.7955 87.6836 89.7779 87.113 89.7779 86.5496C89.7852 85.9666 89.7986 85.3825 89.779 84.7995Z" fill="#1273FF"/>
<path d="M49.6828 12.9548C50.6803 12.961 51.3708 12.2746 51.3687 11.2791C51.3687 10.3074 50.6906 9.62512 49.7293 9.61375C48.6956 9.60548 48.035 10.2443 48.0278 11.2543C48.0206 12.2643 48.6945 12.9486 49.6828 12.9548Z" fill="#1273FF"/>
<path d="M56.1206 12.9548C57.0902 12.9465 57.7673 12.2663 57.7746 11.2946C57.7746 10.3002 57.0944 9.61272 56.0989 9.61375C55.0807 9.61375 54.4316 10.2671 54.4336 11.2894C54.4316 12.2798 55.1252 12.9631 56.1206 12.9548Z" fill="#1273FF"/>
<path d="M36.8773 9.75021C37.8748 9.75641 38.5653 9.07001 38.5632 8.07452C38.5632 7.10384 37.8862 6.42054 36.9238 6.40917C35.8901 6.4009 35.2295 7.03975 35.2223 8.04971C35.2151 9.05967 35.8901 9.75021 36.8773 9.75021Z" fill="#1273FF"/>
<path d="M48.1674 20.9146C48.1798 19.917 47.4985 19.2182 46.5134 19.2141C45.489 19.2141 44.8316 19.855 44.8285 20.868C44.8285 21.8646 45.5076 22.553 46.5 22.553C47.4717 22.5592 48.1549 21.8873 48.1674 20.9146Z" fill="#1273FF"/>
<path d="M20.9179 25.6212C19.8842 25.6119 19.2237 26.2507 19.2154 27.2607C19.2072 28.2706 19.8822 28.956 20.8694 28.9622C21.8566 28.9684 22.5574 28.282 22.5553 27.2865C22.5553 26.3158 21.8793 25.6294 20.9179 25.6212Z" fill="#1273FF"/>
<path d="M62.4965 51.233C61.4783 51.233 60.8312 51.8874 60.8333 52.9108C60.8333 53.9001 61.53 54.5834 62.5265 54.5741C63.4951 54.5648 64.1701 53.8835 64.1742 52.9118C64.1773 51.9174 63.492 51.231 62.4965 51.233Z" fill="#1273FF"/>
<path d="M73.6388 56.1092C73.6388 57.1005 74.3334 57.7838 75.3289 57.7756C76.2985 57.7673 76.9756 57.0871 76.9828 56.1154C76.9828 55.1209 76.3016 54.4335 75.3072 54.4345C74.2859 54.4345 73.6367 55.0878 73.6388 56.1092Z" fill="#1273FF"/>
<path d="M20.9066 60.977C21.8762 60.9688 22.5522 60.2886 22.5605 59.3169C22.5605 58.3224 21.8803 57.635 20.8859 57.635C19.8667 57.635 19.2175 58.2893 19.2196 59.3107C19.2175 60.2999 19.9111 60.9853 20.9066 60.977Z" fill="#1273FF"/>
<path d="M6.40995 52.8932C6.40995 53.8887 7.09219 54.5761 8.08558 54.5741C9.05933 54.5741 9.73951 53.898 9.75088 52.9294C9.76122 51.9318 9.08001 51.2351 8.09075 51.233C7.06739 51.2299 6.41306 51.876 6.40995 52.8932Z" fill="#1273FF"/>
<path d="M8.06388 64.1785C9.06036 64.1847 9.75192 63.4994 9.75088 62.5039C9.75088 61.5332 9.07483 60.8499 8.11349 60.8364C7.07979 60.8271 6.41823 61.466 6.40996 62.4749C6.40169 63.4839 7.07566 64.1713 8.06388 64.1785Z" fill="#1273FF"/>
<path d="M56.1093 28.8227C55.0859 28.8227 54.4326 29.4667 54.4305 30.4849C54.4305 31.4804 55.1138 32.1668 56.1082 32.1637C57.0799 32.1637 57.7622 31.4866 57.7715 30.5169C57.7808 29.5204 57.0996 28.8247 56.1093 28.8227Z" fill="#1273FF"/>
<path d="M46.4824 64.1785C47.4582 64.1837 48.1498 63.5169 48.1673 62.5525C48.186 61.5528 47.5089 60.8447 46.5269 60.8375C45.4932 60.8282 44.8337 61.4681 44.8264 62.478C44.8192 63.488 45.4942 64.1723 46.4824 64.1785Z" fill="#1273FF"/>
<path d="M8.09902 41.6286C7.07255 41.6234 6.41512 42.2664 6.40995 43.2826C6.40995 44.2801 7.08703 44.9707 8.07732 44.9717C9.0676 44.9727 9.73745 44.3029 9.75088 43.3353C9.77052 42.3346 9.08517 41.6338 8.09902 41.6286Z" fill="#1273FF"/>
<path d="M75.3475 38.4271C74.3138 38.4157 73.6481 39.0536 73.6388 40.0594C73.6295 41.0652 74.2993 41.7588 75.2855 41.7681C76.2716 41.7774 76.9787 41.0931 76.9797 40.0997C76.9807 39.1269 76.3068 38.4364 75.3475 38.4271Z" fill="#1273FF"/>
<path d="M30.5293 38.4271C29.4956 38.4157 28.8299 39.0473 28.8196 40.0594C28.8092 41.0714 29.4801 41.7588 30.4673 41.7681C31.4545 41.7774 32.1595 41.0931 32.1605 40.0997C32.1615 39.1269 31.4886 38.4364 30.5293 38.4271Z" fill="#1273FF"/>
<path d="M20.9045 35.3652C21.8741 35.3579 22.5512 34.6788 22.5584 33.7112C22.5584 32.7167 21.8793 32.0272 20.8859 32.0283C19.8656 32.0283 19.2165 32.6795 19.2175 33.7019C19.2165 34.6881 19.9091 35.3724 20.9045 35.3652Z" fill="#1273FF"/>
<path d="M49.7344 28.8227C48.7007 28.8123 48.0371 29.4501 48.0278 30.458C48.0185 31.4659 48.6904 32.1554 49.6817 32.1637C50.673 32.172 51.3729 31.4866 51.3729 30.4921C51.3687 29.5204 50.6947 28.832 49.7344 28.8227Z" fill="#1273FF"/>
<path d="M43.3307 28.8227C42.297 28.8123 41.6344 29.4501 41.625 30.458C41.6157 31.4659 42.2887 32.1554 43.279 32.1637C44.2693 32.172 44.9691 31.4866 44.9691 30.4921C44.966 29.5204 44.2961 28.832 43.3307 28.8227Z" fill="#1273FF"/>
<path d="M52.9131 25.6212C51.8876 25.6212 51.2323 26.2631 51.2292 27.2751C51.2292 28.2717 51.9093 28.9591 52.9017 28.9581C53.8765 28.9581 54.5556 28.2851 54.5701 27.3155C54.5815 26.3231 53.9002 25.6243 52.9131 25.6212Z" fill="#1273FF"/>
<path d="M0.00721774 30.4777C0.00721774 31.4742 0.68635 32.1637 1.67767 32.1637C2.65245 32.1637 3.33159 31.4918 3.34813 30.5242C3.36054 29.5266 2.68036 28.8268 1.69421 28.8227C0.673949 28.8175 0.0113525 29.4625 0.00721774 30.4777Z" fill="#1273FF"/>
<path d="M59.2848 28.9622C60.2823 28.9684 60.9728 28.281 60.9708 27.2865C60.9708 26.3148 60.2927 25.6325 59.3313 25.6212C58.2976 25.6119 57.6371 26.2518 57.6298 27.2607C57.6226 28.2696 58.2986 28.956 59.2848 28.9622Z" fill="#1273FF"/>
<path d="M56.1144 80.1849C57.0851 80.1797 57.7684 79.5016 57.7684 78.5309C57.7746 77.5354 57.0913 76.8439 56.1 76.8428C55.0787 76.8428 54.4274 77.492 54.4274 78.5123C54.4264 79.5068 55.12 80.1911 56.1144 80.1849Z" fill="#1273FF"/>
<path d="M36.9134 3.35034C37.8831 3.34207 38.5591 2.66187 38.5674 1.69016C38.5674 0.695705 37.8872 0.00826989 36.8928 0.00930363C35.8735 0.00930363 35.2244 0.662626 35.2264 1.68499C35.2233 2.67531 35.917 3.35861 36.9134 3.35034Z" fill="#1273FF"/>
<path d="M52.9213 80.0443C51.8938 80.0381 51.2343 80.6811 51.2292 81.6983C51.224 82.6959 51.9042 83.3885 52.8934 83.3905C53.8827 83.3926 54.5556 82.7227 54.5701 81.7562C54.5846 80.7545 53.9095 80.0516 52.9213 80.0443Z" fill="#1273FF"/>
<path d="M46.5196 3.35034C47.4892 3.34104 48.1642 2.66084 48.1673 1.68809C48.1673 0.694672 47.4851 0.00826989 46.4896 0.00930363C45.4714 0.00930363 44.8244 0.663659 44.8264 1.68706C44.8285 2.67635 45.5242 3.35965 46.5196 3.35034Z" fill="#1273FF"/>
<path d="M46.4669 28.9622C47.4655 28.9725 48.1611 28.2882 48.1632 27.2958C48.1632 26.3231 47.4923 25.6315 46.5331 25.6212C45.4994 25.6098 44.8326 26.2466 44.8223 27.2514C44.8119 28.2562 45.4849 28.9519 46.4669 28.9622Z" fill="#1273FF"/>
<path d="M65.7103 3.35034C66.683 3.35034 67.3642 2.67531 67.3756 1.70567C67.3859 0.709143 66.7047 0.0124049 65.7154 0.0093037C64.691 0.00620249 64.0398 0.653322 64.0398 1.66949C64.0315 2.66601 64.7169 3.35241 65.7103 3.35034Z" fill="#1273FF"/>
<path d="M91.3543 67.2394C90.3206 67.2291 89.6549 67.8659 89.6446 68.8717C89.6343 69.8775 90.3062 70.5722 91.2923 70.5815C92.2785 70.5908 92.9835 69.9065 92.9835 68.913C92.9835 67.9403 92.3147 67.2498 91.3543 67.2394Z" fill="#1273FF"/>
<path d="M72.1265 70.4409C71.1 70.4357 70.4415 71.0787 70.4374 72.0949C70.4374 73.0935 71.1134 73.783 72.1037 73.785C73.094 73.7871 73.7649 73.1162 73.7783 72.1486C73.7918 71.1542 73.1126 70.4461 72.1265 70.4409Z" fill="#1273FF"/>
<path d="M8.82571 16.0426C10.3897 16.0787 11.9558 16.0767 13.5208 16.0426C14.8398 16.0157 16.0285 14.8424 16.0471 13.5719C16.0689 12.0069 16.073 10.4418 16.0471 8.8767C16.0203 7.44187 14.9628 6.42674 13.5342 6.41124C12.7951 6.40297 12.055 6.41124 11.3159 6.41124C10.5417 6.41124 9.76535 6.39573 8.99421 6.4164C7.66177 6.45052 6.44406 7.64448 6.42132 8.97284C6.39445 10.5234 6.39135 12.0689 6.42132 13.6164C6.42662 14.2545 6.68096 14.8652 7.13013 15.3185C7.57929 15.7717 8.18773 16.0315 8.82571 16.0426Z" fill="#1273FF"/>
<path d="M79.2352 16.0405C80.8168 16.0812 82.399 16.0812 83.982 16.0405C85.3423 16.0074 86.4722 14.8 86.4877 13.4427C86.4949 12.7036 86.4877 11.9634 86.4877 11.2243C86.4877 10.4325 86.5094 9.64063 86.4825 8.84672C86.4339 7.43877 85.3909 6.41951 83.9944 6.40813C82.4811 6.39676 80.9667 6.39056 79.4533 6.40813C78.1147 6.42674 76.8846 7.61554 76.8577 8.93976C76.8267 10.5038 76.8236 12.0699 76.8577 13.635C76.8658 14.2657 77.118 14.8686 77.5614 15.3172C78.0048 15.7658 78.6047 16.025 79.2352 16.0405Z" fill="#1273FF"/>
<path d="M13.5094 76.8449C12.7858 76.8377 12.0622 76.8449 11.3387 76.8449C10.5479 76.8449 9.75606 76.8263 8.96114 76.8449C7.65661 76.8831 6.43891 78.0709 6.41307 79.3714C6.38205 80.9364 6.37895 82.5025 6.41307 84.0666C6.42249 84.6964 6.67531 85.298 7.11852 85.7455C7.56174 86.193 8.16096 86.4515 8.79058 86.4669C10.3708 86.5083 11.953 86.5083 13.5373 86.4669C14.8977 86.4339 16.0368 85.2265 16.0451 83.8723C16.0544 82.3589 16.0647 80.8444 16.0451 79.3321C16.0213 77.8735 14.969 76.8594 13.5094 76.8449Z" fill="#1273FF"/>
</svg>
