<svg width="87" height="22" viewBox="0 0 87 22" fill="none" xmlns="http://www.w3.org/2000/svg">
<g clip-path="url(#clip0_742_4175)">
<path d="M13.2667 3.99888C13.7845 3.99888 14.2823 4.06176 14.7617 4.1714V0.203307C14.2288 0.125912 13.6893 0.0759277 13.1331 0.0759277C7.36893 0.0759277 2.61693 4.32135 2.18433 9.73415V20.7033H6.60059V10.7629C6.60727 10.4162 6.63734 10.0728 6.6841 9.73415H6.68076C7.08331 6.49325 9.87103 3.99888 13.2667 3.99888ZM33.6026 8.70706H22.3248C22.8442 5.83055 25.0691 3.58772 28.1123 3.58772C31.7469 3.58772 33.3437 5.90472 33.6026 8.70706ZM37.8318 11.8464C37.8318 11.8464 37.8702 11.174 37.8702 10.65C37.8702 4.48421 34.1221 0.0759277 28.1123 0.0759277C22.0274 0.0759277 17.835 4.74703 17.835 10.5387C17.835 16.2934 22.0274 20.9645 28.1123 20.9645C32.0075 20.9645 35.2712 19.3585 37.1269 16.8545L34.2707 14.4988C33.0464 16.1805 30.9685 17.1899 28.7437 17.1899C25.7372 17.1899 22.881 15.0599 22.2496 11.8464H37.8318ZM51.8506 20.7033L61.5333 0.44839H56.8581L50.7749 13.4152L44.6533 0.44839H39.9781L49.6976 20.7033H51.8506ZM80.558 10.5387C80.558 14.1247 77.5915 17.0415 73.9185 17.0415C70.2456 17.0415 67.2774 14.1247 67.2774 10.5387C67.2774 6.91408 70.2456 3.99888 73.9185 3.99888C77.5915 3.99888 80.558 6.91408 80.558 10.5387ZM84.8991 10.5387C84.8991 4.74703 79.965 0.0759277 73.9185 0.0759277C67.8704 0.0759277 62.9363 4.74703 62.9363 10.5387C62.9363 16.2934 67.8704 20.9645 73.9185 20.9645C79.965 20.9645 84.8991 16.2934 84.8991 10.5387Z" fill="#C1C4D6"/>
</g>
<defs>
<clipPath id="clip0_742_4175">
<rect width="87" height="21" fill="white" transform="translate(0 0.0263672)"/>
</clipPath>
</defs>
</svg>
