<svg width="192" height="48" viewBox="0 0 192 48" fill="none" xmlns="http://www.w3.org/2000/svg">
<g clip-path="url(#clip0_742_4172)">
<path fill-rule="evenodd" clip-rule="evenodd" d="M8.02058 3.37853e-07H39.9794C42.1069 -0.000616754 44.1478 0.844132 45.6524 2.34836C47.1569 3.85257 48.0024 5.89298 48.0024 8.02058V39.977C48.0024 44.4081 44.4103 48 39.9794 48H8.02058C3.59055 47.9987 0 44.4072 0 39.977V8.02058C0 3.59092 3.59092 3.37853e-07 8.02058 3.37853e-07ZM36.7492 39.2738C38.1473 39.2738 39.2808 38.1404 39.2808 36.7423L39.2738 11.26C39.2738 9.86191 38.1404 8.72854 36.7423 8.72854H11.2623C10.5905 8.72854 9.9463 8.99557 9.47149 9.47081C8.99668 9.94606 8.73026 10.5905 8.73087 11.2623V36.7423C8.73087 38.1404 9.86424 39.2738 11.2623 39.2738H36.7492Z" fill="#C1C4D6"/>
<path d="M18.9079 30.5079C18.1099 30.5015 17.4663 29.8529 17.4663 29.0548V18.8823C17.4645 18.4957 17.6167 18.1243 17.8895 17.8502C18.1622 17.5762 18.5329 17.4221 18.9195 17.4221H29.106C29.4924 17.4227 29.8627 17.577 30.1354 17.8509C30.4079 18.1248 30.5604 18.4959 30.5591 18.8823V29.0524C30.5604 29.4388 30.4079 29.8099 30.1354 30.0837C29.8627 30.3577 29.4924 30.512 29.106 30.5127L18.9079 30.5079Z" fill="#C1C4D6"/>
<path d="M72.4275 21.8609C70.9417 21.4557 69.5351 21.0738 68.4429 20.5871C66.4214 19.6835 65.4806 18.4305 65.4806 16.6466C65.4806 13.2745 68.7409 11.7561 71.9874 11.7561C75.073 11.7561 77.7675 13.0323 79.5771 15.3472L79.7004 15.5055L82.3088 13.4654L82.1831 13.3071C79.7774 10.247 76.2143 8.57019 72.1456 8.57019C69.4373 8.57019 66.9546 9.30145 65.1592 10.6312C63.1378 12.11 62.0711 14.2549 62.0711 16.8143C62.0711 22.7646 67.6742 24.2153 72.1784 25.3822C76.736 26.5839 79.5282 27.4968 79.5282 30.9713C79.5282 34.3924 76.7615 36.6026 72.481 36.6026C70.3642 36.6026 66.4447 36.0414 63.9808 32.278L63.8667 32.1009L61.1233 34.0874L61.2304 34.2482C63.5593 37.774 67.5789 39.7979 72.2715 39.7979C78.6455 39.7979 82.9306 36.1996 82.9306 30.8481C82.9306 24.723 77.1038 23.1371 72.4275 21.8609Z" fill="#C1C4D6"/>
<path fill-rule="evenodd" clip-rule="evenodd" d="M103.723 20.6243V17.4035H106.789V47.9954H103.723V36.0437C101.971 38.4447 99.3443 39.7582 96.2561 39.7582C90.4248 39.7582 86.3491 35.0889 86.3491 28.3468C86.3491 21.6048 90.4339 16.8982 96.2561 16.8982C99.3233 16.8982 101.95 18.2187 103.723 20.6243ZM89.5817 28.3095C89.5817 34.5508 93.1564 36.775 96.5029 36.775L96.5099 36.7772C100.891 36.7772 103.723 33.4237 103.723 28.3095C103.723 23.1954 100.886 19.8884 96.5029 19.8884C91.4005 19.8884 89.5817 24.2387 89.5817 28.3095Z" fill="#C1C4D6"/>
<path d="M127.067 17.4036V29.4786C127.067 33.7056 124.172 36.775 120.185 36.775C116.874 36.775 115.262 34.8094 115.262 30.7689V17.4036H112.195V31.3953C112.195 36.6352 115.043 39.7628 119.812 39.7628C122.784 39.7628 125.337 38.503 127.069 36.1997V39.2645H130.136V17.4036H127.067Z" fill="#C1C4D6"/>
<path fill-rule="evenodd" clip-rule="evenodd" d="M135.912 19.6999C138.173 17.923 141.243 16.9053 144.328 16.9053C149.203 16.9053 152.111 19.3296 152.102 23.3957V39.2693H149.033V36.8449C147.484 38.7848 145.244 39.7677 142.36 39.7677C137.663 39.7677 134.743 37.1988 134.743 33.0675C134.743 27.6948 139.806 26.8517 141.962 26.4931C142.314 26.435 142.677 26.3792 143.04 26.3231H143.041L143.054 26.3211C146 25.8675 149.042 25.3995 149.042 22.8998C149.042 20.0702 145.369 19.8513 144.244 19.8513C142.258 19.8513 139.452 20.4405 137.544 22.0939L137.37 22.2453L135.767 19.814L135.912 19.6999ZM137.945 32.8952C137.945 36.3979 141.243 36.7773 142.661 36.7773H142.663C145.747 36.7773 149.047 35.1333 149.04 30.5128V27.3501C147.544 28.295 145.414 28.6642 143.515 28.9934L143.483 28.9991L142.53 29.1691C139.489 29.7326 137.945 30.4592 137.945 32.8952Z" fill="#C1C4D6"/>
<path d="M169.871 17.8156C169.142 17.2963 167.994 16.9866 166.797 16.9866C164.337 17.0189 162.036 18.2047 160.581 20.1888V17.3941H157.514V39.2528H160.581V27.562C160.581 22.378 163.495 20.056 166.38 20.056C167.225 20.0447 168.061 20.2221 168.828 20.5753L169.035 20.6848L170.006 17.9042L169.871 17.8156Z" fill="#C1C4D6"/>
<path fill-rule="evenodd" clip-rule="evenodd" d="M170.77 28.3934C170.77 21.6305 174.988 16.9053 181.017 16.9053C186.825 16.9053 190.884 21.0995 190.873 27.1149C190.871 27.6379 190.842 28.1602 190.787 28.6799L190.768 28.8592H174C174.077 33.673 176.974 36.7773 181.42 36.7773C183.968 36.7773 186.175 35.7411 187.636 33.8569L187.768 33.6848L189.99 35.6641L189.867 35.8131C188.39 37.6133 185.698 39.7607 181.25 39.7607C174.985 39.7607 170.77 35.1937 170.77 28.3934ZM180.933 19.8489C177.186 19.8489 174.529 22.3151 174.114 26.1555H187.631C187.366 23.0674 185.479 19.8489 180.933 19.8489Z" fill="#C1C4D6"/>
</g>
<defs>
<clipPath id="clip0_742_4172">
<rect width="192" height="48" fill="white"/>
</clipPath>
</defs>
</svg>
