<svg width="192" height="40" viewBox="0 0 192 40" fill="none" xmlns="http://www.w3.org/2000/svg">
<path d="M73.0217 30.8566C73.0217 29.4065 71.9051 28.5082 70.1068 28.5082H67.1529V36.6635H67.8021L67.7697 36.5929V33.1986H70.1003C70.1977 33.1986 70.2951 33.1986 70.3924 33.1986L72.6127 36.625H73.3008L71.0027 33.0959C71.5576 33.0302 72.0691 32.7663 72.4409 32.3539C72.8128 31.9415 73.0193 31.409 73.0217 30.8566ZM72.4179 30.8566C72.4179 32.0115 71.548 32.7045 70.0808 32.7045H67.7437V29.0279H70.0613C71.5155 29.0279 72.4179 29.7145 72.4179 30.8694V30.8566Z" fill="#C1C4D6"/>
<path d="M70.6002 22.8617C70.6721 23.0019 70.7664 23.1297 70.8793 23.2403C70.9783 23.3368 71.0922 23.4169 71.2169 23.4777L71.3597 23.5483C71.5278 23.6111 71.7059 23.6437 71.8856 23.6445C72.0797 23.6433 72.2717 23.6041 72.4504 23.529H72.4893C72.6486 23.4596 72.7921 23.3592 72.9113 23.2339C73.0188 23.1279 73.1067 23.0041 73.171 22.8681L73.2035 22.804L78.6827 10.2855C78.8048 9.94679 78.7929 9.57491 78.6491 9.24454C78.5054 8.91417 78.2405 8.64976 77.9077 8.50438C77.5749 8.359 77.1988 8.34342 76.8549 8.46076C76.5109 8.57809 76.2246 8.81967 76.0534 9.13699L71.8986 18.6333L67.7372 9.13699C67.6622 8.9651 67.5536 8.80949 67.4178 8.67906C67.2819 8.54863 67.1214 8.44592 66.9453 8.3768C66.5898 8.23722 66.1928 8.24293 65.8415 8.39269C65.4903 8.54244 65.2136 8.82397 65.0724 9.17533C64.9312 9.5267 64.937 9.91913 65.0885 10.2663L70.6002 22.7783V22.8617Z" fill="#C1C4D6"/>
<path d="M90.6344 23.298H98.7688C99.1511 23.298 99.5176 23.148 99.7879 22.8808C100.058 22.6137 100.21 22.2514 100.21 21.8736C100.21 21.4958 100.058 21.1335 99.7879 20.8664C99.5176 20.5992 99.1511 20.4491 98.7688 20.4491H92.0756V17.4783H97.7756C98.1578 17.4783 98.5244 17.3283 98.7947 17.0611C99.0649 16.794 99.2168 16.4317 99.2168 16.0539C99.2168 15.6761 99.0649 15.3138 98.7947 15.0467C98.5244 14.7795 98.1578 14.6295 97.7756 14.6295H92.0756V11.7036H98.7688C99.1511 11.7036 99.5176 11.5535 99.7879 11.2863C100.058 11.0192 100.21 10.6569 100.21 10.2791C100.21 9.90133 100.058 9.53901 99.7879 9.27188C99.5176 9.00474 99.1511 8.85467 98.7688 8.85467H90.6344C90.4449 8.85382 90.2571 8.89008 90.0818 8.96137C89.9066 9.03265 89.7474 9.13754 89.6134 9.26998C89.4794 9.40243 89.3732 9.55979 89.3011 9.733C89.229 9.9062 89.1923 10.0918 89.1932 10.2791V21.8736C89.1923 22.0609 89.229 22.2465 89.3011 22.4197C89.3732 22.5929 89.4794 22.7503 89.6134 22.8827C89.7474 23.0152 89.9066 23.1201 90.0818 23.1913C90.2571 23.2626 90.4449 23.2989 90.6344 23.298Z" fill="#C1C4D6"/>
<path d="M39.5036 21.2063L53.8119 0L28.6036 14.8155L39.5036 21.2063Z" fill="#C1C4D6"/>
<path d="M138.681 23.5098C140.171 23.5098 141.627 23.0733 142.865 22.2554C144.104 21.4375 145.069 20.2751 145.639 18.9151C146.209 17.555 146.358 16.0585 146.067 14.6147C145.777 13.1709 145.06 11.8446 144.006 10.8037C142.953 9.76277 141.611 9.05389 140.151 8.76669C138.69 8.4795 137.176 8.6269 135.8 9.19024C134.424 9.75359 133.247 10.7076 132.42 11.9316C131.592 13.1556 131.151 14.5946 131.151 16.0667C131.152 18.0402 131.946 19.9324 133.358 21.3279C134.77 22.7234 136.685 23.5081 138.681 23.5098ZM138.681 11.4726C139.601 11.4726 140.499 11.742 141.264 12.2468C142.028 12.7516 142.624 13.4691 142.976 14.3086C143.328 15.1481 143.42 16.0718 143.24 16.963C143.061 17.8542 142.618 18.6728 141.968 19.3153C141.318 19.9578 140.49 20.3953 139.588 20.5726C138.687 20.7499 137.752 20.6589 136.903 20.3112C136.053 19.9635 135.327 19.3746 134.817 18.6191C134.306 17.8636 134.033 16.9754 134.033 16.0667C134.035 14.8488 134.525 13.6812 135.397 12.82C136.268 11.9588 137.449 11.4743 138.681 11.4726Z" fill="#C1C4D6"/>
<path d="M112.934 23.298H120.024C120.406 23.298 120.772 23.148 121.043 22.8808C121.313 22.6137 121.465 22.2514 121.465 21.8736C121.465 21.4958 121.313 21.1335 121.043 20.8664C120.772 20.5992 120.406 20.4491 120.024 20.4491H114.382V10.2534C114.382 9.87566 114.23 9.51335 113.96 9.24621C113.69 8.97908 113.323 8.829 112.941 8.829C112.559 8.829 112.192 8.97908 111.922 9.24621C111.651 9.51335 111.5 9.87566 111.5 10.2534V21.7388C111.496 21.7837 111.496 21.8287 111.5 21.8736C111.499 22.0604 111.535 22.2454 111.607 22.4182C111.679 22.591 111.784 22.7481 111.917 22.8804C112.051 23.0128 112.209 23.1178 112.384 23.1895C112.558 23.2612 112.745 23.298 112.934 23.298Z" fill="#C1C4D6"/>
<path d="M77.7998 36.6506H83.1037V36.1437H78.384V32.7302H82.883V32.2233H78.384V29.0215H83.1037V28.5082H77.7998V36.6506Z" fill="#C1C4D6"/>
<path d="M26.8897 40L38.3481 22.6821L0 0.147578L26.8897 40Z" fill="#C1C4D6"/>
<path d="M109.552 28.5018H108.948L105.215 36.5736L105.183 36.6442H105.871L107.085 33.9621H111.409L112.61 36.6121V36.6442H113.298L109.552 28.5338V28.5018ZM111.194 33.4681H107.299L109.247 29.2461L111.194 33.4681Z" fill="#C1C4D6"/>
<path d="M167.941 19.3134C167.303 19.9432 166.494 20.3761 165.611 20.5593C164.729 20.7426 163.812 20.6683 162.972 20.3455C162.131 20.0227 161.404 19.4653 160.879 18.7413C160.353 18.0173 160.052 17.1578 160.012 16.2676C159.972 15.3775 160.194 14.495 160.653 13.7277C161.111 12.9604 161.785 12.3414 162.593 11.9461C163.401 11.5507 164.308 11.3962 165.203 11.5013C166.099 11.6063 166.944 11.9664 167.636 12.5377C167.931 12.7503 168.298 12.8439 168.66 12.7996C169.023 12.7553 169.355 12.5764 169.59 12.2991C169.824 12.0218 169.943 11.6668 169.923 11.3061C169.902 10.9453 169.744 10.6057 169.479 10.3561C168.551 9.5889 167.449 9.05421 166.267 8.79732C165.085 8.54044 163.857 8.56894 162.689 8.8804C161.52 9.19187 160.445 9.77712 159.554 10.5866C158.662 11.3961 157.982 12.4059 157.569 13.5305C157.157 14.6552 157.025 15.8615 157.184 17.0473C157.344 18.2331 157.79 19.3634 158.485 20.3426C159.181 21.3217 160.105 22.1208 161.179 22.6721C162.253 23.2235 163.446 23.5108 164.656 23.5098C165.645 23.5122 166.625 23.3206 167.539 22.9461C168.452 22.5717 169.282 22.0217 169.979 21.3282C170.25 21.061 170.401 20.6987 170.401 20.3208C170.401 19.943 170.25 19.5806 169.979 19.3134C169.709 19.0463 169.342 18.8962 168.96 18.8962C168.578 18.8962 168.211 19.0463 167.941 19.3134Z" fill="#C1C4D6"/>
<path d="M156.807 35.7074L151.166 28.5274L151.153 28.5082H150.568V36.6506H151.153V29.4065L156.839 36.6314L156.859 36.6506H157.391V28.5082H156.807V35.7074Z" fill="#C1C4D6"/>
<path d="M161.228 29.0215H164.078V36.6506H164.623V29.0215H167.467V28.5082H161.228V29.0215Z" fill="#C1C4D6"/>
<path d="M190.559 20.4491H183.866V17.4783H189.565C189.755 17.4783 189.942 17.4415 190.117 17.3699C190.292 17.2983 190.451 17.1934 190.585 17.0611C190.718 16.9289 190.825 16.7718 190.897 16.599C190.969 16.4262 191.007 16.241 191.007 16.0539C191.007 15.8668 190.969 15.6816 190.897 15.5088C190.825 15.336 190.718 15.1789 190.585 15.0467C190.451 14.9144 190.292 14.8095 190.117 14.7379C189.942 14.6663 189.755 14.6295 189.565 14.6295H183.866V11.7036H190.559C190.941 11.7036 191.308 11.5535 191.578 11.2863C191.848 11.0192 192 10.6569 192 10.2791C192 9.90133 191.848 9.53901 191.578 9.27188C191.308 9.00474 190.941 8.85467 190.559 8.85467H182.424C182.235 8.85127 182.048 8.8848 181.872 8.95334C181.696 9.02188 181.536 9.12407 181.4 9.25405C181.264 9.38402 181.156 9.53922 181.081 9.71073C181.006 9.88224 180.966 10.0667 180.964 10.2534V21.8736C180.963 22.0609 180.999 22.2465 181.072 22.4197C181.144 22.5929 181.25 22.7503 181.384 22.8827C181.518 23.0152 181.677 23.1201 181.852 23.1913C182.028 23.2626 182.215 23.2989 182.405 23.298H190.539C190.922 23.298 191.288 23.148 191.558 22.8808C191.829 22.6137 191.981 22.2514 191.981 21.8736C191.981 21.4958 191.829 21.1335 191.558 20.8664C191.288 20.5992 190.922 20.4491 190.539 20.4491H190.559Z" fill="#C1C4D6"/>
<path d="M96.8537 29.0215H99.7037V36.6506H100.249V29.0215H103.092V28.5082H96.8537V29.0215Z" fill="#C1C4D6"/>
<path d="M122.835 33.7889C122.835 35.3096 121.796 36.2528 120.114 36.2528C118.433 36.2528 117.394 35.3096 117.394 33.7889V28.5082H116.829V33.8081C116.829 35.6047 118.128 36.7661 120.121 36.7661C122.114 36.7661 123.419 35.6047 123.419 33.8081V28.5082H122.835V33.7889Z" fill="#C1C4D6"/>
<path d="M91.0109 32.3773L90.1475 32.1784C88.8037 31.8704 88.2389 31.3892 88.2389 30.5679C88.2389 29.5669 89.0958 28.8932 90.3812 28.8932C91.6666 28.8932 92.569 29.5861 92.6274 30.5294V30.5807H93.1727V30.5294C93.1273 29.3102 91.9393 28.3927 90.4007 28.3927C88.8621 28.3927 87.6805 29.3102 87.6805 30.5743C87.6805 31.6779 88.3297 32.3067 89.9592 32.6789L90.8226 32.8778C92.2184 33.205 92.7702 33.6734 92.7702 34.5075C92.7702 35.5534 91.8419 36.2528 90.4656 36.2528C89.0893 36.2528 88.0701 35.5149 87.9986 34.4562V34.4113H87.4793V34.4626C87.5442 35.8165 88.7777 36.7661 90.4721 36.7661C92.1665 36.7661 93.335 35.8357 93.335 34.4626C93.3545 33.3526 92.6729 32.7687 91.0109 32.3773Z" fill="#C1C4D6"/>
<path d="M134.436 30.8566C134.436 29.4065 133.215 28.5082 131.255 28.5082H128.009V36.6635H128.749L128.619 36.5736V33.1986H131.488L133.929 36.6506H134.695L132.176 33.1152C133.605 32.8778 134.436 32.018 134.436 30.8566ZM133.786 30.8566C133.786 32.0115 132.839 32.7045 131.242 32.7045H128.697V29.0279H131.242C132.793 29.0279 133.767 29.7145 133.767 30.8694L133.786 30.8566Z" fill="#C1C4D6"/>
<path d="M142.693 28.5018H142.103L138.37 36.5736V36.6442H139.064L140.272 33.9621H144.609L145.79 36.6121V36.6442H146.478L142.726 28.5338L142.693 28.5018ZM144.349 33.4681H140.454L142.401 29.2461L144.349 33.4681Z" fill="#C1C4D6"/>
</svg>
