<svg width="130" height="36" viewBox="0 0 130 36" fill="none" xmlns="http://www.w3.org/2000/svg">
<path fill-rule="evenodd" clip-rule="evenodd" d="M37.3575 35.5586H27.8874L20.786 7.75672C20.4489 6.47783 19.7333 5.34722 18.6805 4.81435C16.0533 3.47523 13.1582 2.40949 10 1.87198V0.801609H25.2555C27.361 0.801609 28.9401 2.40949 29.2033 4.27685L32.8879 24.3313L42.3534 0.801609H51.5603L37.3575 35.5586ZM56.824 35.5586H47.8803L55.2449 0.801609H64.1886L56.824 35.5586ZM75.7595 10.4304C76.0227 8.55836 77.6018 7.48799 79.4441 7.48799C82.3392 7.21923 85.4928 7.75674 88.1247 9.09123L89.7038 1.60788C87.0719 0.537504 84.1769 0 81.5496 0C72.8691 0 66.5527 4.81437 66.5527 11.4961C66.5527 16.5792 71.0268 19.2482 74.185 20.8561C77.6018 22.4593 78.9178 23.5297 78.6546 25.1329C78.6546 27.5378 76.0227 28.6082 73.3955 28.6082C70.2373 28.6082 67.079 27.8066 64.1886 26.4674L62.6095 33.9554C65.7677 35.2899 69.1845 35.8274 72.3427 35.8274C82.076 36.0915 88.1247 31.2818 88.1247 24.0626C88.1247 14.9713 75.7595 14.4385 75.7595 10.4304ZM119.425 35.5586L112.324 0.801609H104.696C103.117 0.801609 101.538 1.87198 101.012 3.47523L87.8615 35.5586H97.0683L98.906 30.4802H110.218L111.271 35.5586H119.425ZM106.012 10.1616L108.639 23.261H101.275L106.012 10.1616Z" fill="#C1C4D6"/>
</svg>
